<svg xmlns="http://www.w3.org/2000/svg" width="1920" height="188">
  <path d="m 1919.5455,13.010759 c -1.5855,-0.84852 -3.7014,-2.086895 -4.1673,-0.872625 -0.3257,0.84872 -1.6549,1.54313 -2.9538,1.54313 -1.8123,0 -2.2213,0.40708 -1.7585,1.75 0.4899,1.42131 0.3021,1.37436 -0.9996,-0.25 -0.9729,-1.21408 -1.6152,-1.48982 -1.6345,-0.7017 -0.024,0.97176 -1.1007,1.11733 -4.2818,0.57878 -2.3375,-0.39573 -5.6,-0.75497 -7.25,-0.7983 -1.65,-0.0433 -3.5748,-0.75378 -4.2773,-1.57878 -1.1353,-1.33334 -1.261,-1.33334 -1.1315,0 0.3113,3.20327 -0.2257,3.75469 -4.1712,4.2839 -3.24,0.43458 -4.8048,0.0554 -7.6006,-1.84188 -1.9363,-1.31403 -5.0318,-2.67264 -6.8789,-3.01915 -2.851,-0.53487 -3.7223,-0.20676 -5.7689,2.17247 -2.392,2.78092 -2.4159,2.78557 -3.1085,0.60358 -0.3838,-1.20941 -1.0651,-2.19892 -1.5139,-2.19892 -1.3427,0 -1.9019,3.7473 -0.7335,4.91567 1.6028,1.60286 -0.56,1.35736 -2.8604,-0.32467 -1.2494,-0.91365 -2.5012,-1.10165 -3.5604,-0.53475 -0.9788,0.52383 -4.9926,0.33653 -10.0142,-0.46732 -4.9662,-0.79497 -8.6182,-0.96873 -8.9637,-0.42649 -0.3466,0.54416 -1.698,0.49112 -3.3339,-0.13084 -1.513,-0.57525 -3.183,-0.7789 -3.711,-0.45256 -0.528,0.32634 -2.0653,-0.13081 -3.4161,-1.0159 -1.3571,-0.88922 -2.456,-1.14001 -2.456,-0.56052 0,0.60884 -1.3214,0.36543 -3.1502,-0.5803 -4.0525,-2.09564 -20.92,-4.5103301 -22.5359,-3.2261601 -0.6523,0.5184301 -2.4523,1.2999001 -4,1.7366001 -1.5476,0.43669 -2.6903,1.33892 -2.5391,2.00494 0.1511,0.66603 -0.1486,0.94929 -0.6661,0.62947 -0.5175,-0.31981 -2.1584,-0.11859 -3.6464,0.44717 -1.9371,0.73649 -3.1018,0.69979 -4.1007,-0.12921 -0.7673,-0.63682 -3.1876,-1.15786 -5.3784,-1.15786 -2.1907,0 -3.9832,-0.39721 -3.9832,-0.88269 0,-0.48548 -1.0459,-0.62018 -2.3242,-0.29935 -1.4052,0.35269 -2.785,0.0282 -3.4895,-0.8208 -0.641,-0.77228 -2.5201,-1.32356 -4.1758,-1.22506 -1.6558,0.0985 -3.0105,-0.1461 -3.0105,-0.5435601 0,-0.39746 -1.1114,-0.93511 -2.4697,-1.19478 -1.3584,-0.25967 -2.2633,-0.13811 -2.011,0.27012 0.2523,0.40823 -0.1713,1.26507 -0.9413,1.9041001 -1.0213,0.84761 -1.5861,0.86064 -2.0882,0.0482 -0.4772,-0.7719701 -1.2382,-0.61607 -2.4804,0.50808 -0.9856,0.89197 -2.9393,1.74409 -4.3416,1.89359 -1.4022,0.14951 -3.1386,0.74017 -3.8586,1.31258 -1.8787,1.49353 -10.6496,2.28127 -11.0783,0.99499 -0.2111,-0.6334 -1.1233,-0.73539 -2.2909,-0.25614 -1.453,0.59645 -1.589,0.92596 -0.5415,1.31274 2.0063,0.74086 -9.5879,5.25075 -13.4988,5.25075 -2.5863,0 -3.3502,-0.46532 -3.694,-2.25 l -0.4333,-2.25 -0.1362,2.25 c -0.161,2.65903 1.5133,2.40818 -19.6362,2.94215 -9.35,0.23607 -19.3487,0.66941 -22.2194,0.96298 -3.4542,0.35325 -8.6354,-0.20943 -15.3206,-1.66382 -5.5556,-1.20868 -11.3069,-1.97674 -12.7806,-1.7068 -4.5178,0.82752 -14.5387,3.66354 -17.1794,4.86191 -3.1096,1.41117 -11.2463,2.20877 -20.7922,2.03817 -4.503,-0.0805 -7.0623,0.2418 -6.691,0.84254 0.3556,0.57544 -1.2371,0.97287 -3.8988,0.97287 -2.475,0 -4.7517,-0.40731 -5.0594,-0.90514 -0.6325,-1.02351 -12.5212,-0.23691 -14.0586,0.93017 -0.55,0.41753 -3.3625,0.3577 -6.25,-0.13295 -13.593,-2.30974 -15.3648,-2.51531 -15.7873,-1.83169 -0.2486,0.40226 -2.1006,0.35959 -4.1154,-0.0948 -3.1365,-0.7074 -4.1559,-0.45058 -7.0878,1.78569 -1.8834,1.43656 -5.7498,3.41195 -8.592,4.38977 -4.3698,1.50339 -6.1309,1.61414 -11.4083,0.71737 -4.0878,-0.69463 -7.1944,-0.72802 -9.0051,-0.0968 -1.7338,0.60439 -3.6946,0.61476 -5.2593,0.0278 -3.1618,-1.18606 -17.5926,-1.52386 -21.3016,-0.49863 -2.2076,0.6102 -2.6736,1.19574 -2.1826,2.74253 0.3433,1.08168 0.2564,1.9693 -0.1932,1.97248 -0.4496,0.003 -3.5174,0.45937 -6.8174,1.01374 -3.3,0.55437 -10.5,1.24139 -16,1.52671 -13.8821,0.72016 -27.4341,2.06085 -31,3.0668 -1.65,0.46548 -6.9451,0.77368 -11.7668,0.68489 -5.4604,-0.10054 -8.5403,0.20511 -8.1662,0.81041 0.3656,0.5917 -0.4129,0.71746 -1.9905,0.3215 -1.731,-0.43444 -3.5015,-0.0425 -5.3338,1.18077 -3.102,2.07094 -7.8869,2.64203 -10.4927,1.25232 -1.2048,-0.64252 -1.75,-0.56604 -1.75,0.24549 0,1.32004 -12.0637,0.57825 -16.2056,-0.99647 -3.2718,-1.24395 -25.3423,-2.50937 -26.9065,-1.54269 -0.71,0.43884 -5.6333,0.68127 -10.9407,0.53874 -7.0067,-0.18817 -10.6824,0.17233 -13.42,1.3162 -3.1209,1.304 -4.9054,1.39401 -10.3601,0.52262 -3.6244,-0.579 -7.1181,-1.49119 -7.7638,-2.0271 -0.786,-0.65226 -3.7523,-0.13275 -8.9731,1.57147 -4.2894,1.40022 -9.4035,2.69144 -11.3646,2.86939 -1.9611,0.17795 -5.127,1.13232 -7.0354,2.12082 -3.6673,1.89957 -13.4934,2.59069 -18.1676,1.27782 -2.1034,-0.59081 -2.6095,-0.40788 -2.5,0.90359 0.1163,1.39225 -0.8675,1.61135 -6.4165,1.42898 -3.9866,-0.13103 -10.8415,0.72558 -17.5,2.18685 -9.7423,2.13807 -12.4857,2.33603 -24.9461,1.80012 -10.3484,-0.44508 -14.5366,-0.27599 -16.0572,0.64824 -1.1315,0.68771 -8.1065,1.97464 -15.5,2.85986 -15.5287,1.85923 -13.9611,1.80326 -24.9428,0.89054 -7.079,-0.58835 -9.455,-0.38101 -14.2126,1.24023 -3.3,1.12456 -6.2562,1.60171 -7,1.12984 -2.0509,-1.30129 -5.096,-0.98435 -8.8293,0.91896 -2.5085,1.27892 -4.5677,1.5826 -7.4614,1.10036 -2.989,-0.49813 -4.459,-0.25504 -5.8302,0.96413 -1.0198,0.9067 -3.0839,1.49904 -4.6508,1.33467 -1.5496,-0.16254 -3.1317,0.21303 -3.5158,0.83459 -0.486,0.78643 -1.2951,0.59019 -2.6602,-0.64527 -1.3953,-1.26274 -2.1679,-1.44196 -2.6755,-0.62066 -0.7888,1.27638 -11.0579,1.53821 -12.6642,0.3229 -0.9379,-0.70961 -4.3292,-0.39641 -19,1.75472 -3.3,0.48387 -6.15,0.49915 -6.3333,0.0339 -0.1834,-0.4652 -1.0834,-0.86013 -2,-0.87762 -0.9167,-0.0175 -2.5667,-0.7189 -3.6667,-1.55868 -1.6097,-1.2289 -3.6287,-1.39321 -10.3455,-0.84197 -7.5093,0.61629 -8.8618,0.44684 -13.5,-1.69132 -2.835,-1.30692 -5.2751,-2.62563 -5.4226,-2.93045 -0.4989,-1.03142 -15.7237,2.5211 -16.8138,3.92329 -0.8319,1.07007 -3.20048,1.29036 -10.24998,0.95332 -5.3024,-0.25351 -9.1681,-0.046 -9.1681,0.49209 0,0.51173 -0.6225,0.41383 -1.3832,-0.21755 -1.057,-0.87718 -1.506,-0.82799 -1.9038,0.2085 -0.5582,1.45468 -5.7901,1.52348 -13.46302,0.17703 -2.77291,-0.48659 -4.25,-0.38122 -4.25,0.30317 0,0.57693 -1.99402,1.81049 -4.43116,2.74124 -4.084,1.55969 -5.16127,1.57267 -13.75,0.16566 -10.20407,-1.67164 -13.93971,-1.71946 -15.03833,-0.19252 -0.46546,0.64694 -1.47474,0.53173 -2.85864,-0.32632 -1.66067,-1.02966 -2.75303,-1.07205 -4.88366,-0.18951 -2.30524,0.95486 -3.4238,0.78275 -6.98861,-1.07534 -3.48988,-1.81902 -4.39551,-1.96717 -5.09609,-0.83361 -0.63151,1.0218 -2.79095,1.29762 -8.34469,1.06584 C 892.96286,71.503234 889,72.137074 889,73.679094 c 0,0.47469 1.0125,1.09337 2.25,1.37486 1.2375,0.28148 0.225,0.3469 -2.25,0.14536 -2.475,-0.20153 -7.80779,-1.09099 -11.85065,-1.97657 -9.31252,-2.03988 -15.67081,-2.17951 -25.29358,-0.55546 -5.89996,0.99574 -10.23097,1.04618 -18.98068,0.22106 -7.69084,-0.72527 -11.73057,-0.74199 -12.56197,-0.052 -0.67403,0.55939 -1.71493,0.7146 -2.31312,0.3449 -0.59819,-0.3697 -1.77796,-0.0992 -2.62172,0.60101 -0.86418,0.71722 -3.57433,1.1773 -6.20619,1.05359 -2.56965,-0.12079 -6.18804,0.22893 -8.04087,0.77715 -2.56073,0.75768 -4.04796,0.64555 -6.20034,-0.46749 -3.20881,-1.65934 -4.2867,-1.849 -3.52756,-0.6207 0.76045,1.23044 -24.33788,0.58339 -35.23556,-0.90838 -7.10499,-0.9726 -10.08826,-1.00442 -12.5,-0.13333 -1.74227,0.62929 -4.14205,0.88882 -5.33284,0.57673 -1.58588,-0.41563 -2.60874,0.10969 -3.82353,1.96369 -2.52278,3.85025 -6.46915,4.21789 -14.27463,1.32983 -3.70522,-1.37094 -9.66176,-2.77224 -13.23676,-3.11399 -3.575,-0.34174 -9.37293,-0.89859 -12.8843,-1.23743 -5.90639,-0.56995 -6.51782,-0.43905 -8.16804,1.74871 -1.78219,2.36269 -1.78836,2.3633 -7.02675,0.68813 -4.96261,-1.58698 -8.93129,-1.1472 -8.09591,0.89714 0.17875,0.43743 -0.15875,0.95659 -0.75,1.15367 -0.59125,0.19708 -1.075,-0.12917 -1.075,-0.725 0,-0.59583 -1.23375,-1.08333 -2.74167,-1.08333 -4.4807,0 -18.25833,2.38293 -18.25833,3.15789 0,0.394 -1.64496,0.44943 -3.65548,0.12316 -2.62817,-0.42649 -3.45468,-0.26831 -2.94098,0.56287 0.46954,0.75973 -0.16284,1.15608 -1.84452,1.15608 -1.65741,0 -2.55902,-0.55249 -2.55902,-1.5681 0,-1.31628 -0.45758,-1.24226 -2.84952,0.46095 -2.36039,1.68075 -3.44383,1.86493 -6.31185,1.07304 -8.37139,-2.31146 -12.78635,-2.73381 -13.94783,-1.33431 -1.20703,1.45438 -5.45903,1.87602 -6.23631,0.61842 -0.25495,-0.4125 -10.29401,-0.67596 -22.30902,-0.58546 -27.86048,0.20985 -25.86412,0.0927 -30.93721,1.81508 -2.79261,0.94812 -5.16258,1.17689 -6.61729,0.63876 -1.37297,-0.5079 -2.94051,-0.41743 -3.9764,0.2295 -1.21327,0.75769 -4.12164,0.7541 -10.01228,-0.0124 -10.87693,-1.41528 -15.34575,-1.11111 -15.1634,1.03211 0.15737,1.8496 -1.67298,1.95648 -13.38889,0.78185 -3.9875,-0.39978 -7.25,-0.36187 -7.25,0.0842 0,1.42354 -13.37602,0.17116 -16.70034,-1.56363 -1.76019,-0.91855 -4.46019,-1.63456 -6,-1.59114 -1.53981,0.0434 -2.23716,0.30592 -1.54966,0.58333 2.60738,1.0521 1.27316,2.99473 -1.75188,2.55075 -1.80221,-0.26451 -4.03403,0.23571 -5.58457,1.25165 -2.43094,1.59282 -2.69521,1.5904 -4.49811,-0.0412 C 460.80102,84.096194 460,83.854294 460,84.526274 c 0,0.64955 -1.50583,1.15499 -3.44098,1.15499 -1.89254,0 -3.65728,0.34997 -3.92164,0.7777 -0.51869,0.83927 -5.78936,0.67525 -12.02386,-0.37418 -3.1434,-0.52912 -3.72809,-0.39124 -3.05804,0.72114 0.69043,1.14622 0.54255,1.14336 -0.88769,-0.0172 -0.94387,-0.76588 -2.0099,-1.09873 -2.36896,-0.73967 -0.35905,0.35906 0.21432,1.29105 1.27417,2.07108 1.59693,1.17532 1.67007,1.50601 0.427,1.9306 -2.32734,0.79495 -11.04149,1.71331 -15.75,1.65986 -2.3375,-0.0265 -4.25,0.34803 -4.25,0.83236 0,0.86532 -8.17698,2.50824 -12.91248,2.59438 -1.32687,0.0241 -2.60293,0.60957 -2.83569,1.30097 -0.30306,0.90017 -1.30278,0.63077 -3.52122,-0.9489 -1.99912,-1.4235 -3.23367,-1.79901 -3.48045,-1.05866 -0.28576,0.85728 -1.04087,0.84733 -2.98689,-0.0393 -2.03822,-0.92867 -2.69418,-0.91746 -3.01719,0.0516 -0.22701,0.68104 -1.93441,1.23825 -3.79423,1.23825 -2.31101,0 -3.70676,0.60778 -4.40899,1.91991 -1.37299,2.565456 -7.36634,4.434166 -12.15945,3.791266 C 364.55434,101.08005 363,101.28274 363,101.89886 c 0,0.69882 -0.39968,0.69628 -1.25,-0.008 -0.80854,-0.66962 -2.83927,-0.72824 -5.75,-0.166 -2.475,0.47808 -4.88564,0.88883 -5.35699,0.91278 -0.47134,0.0239 -0.57402,0.78095 -0.22817,1.68221 0.55485,1.44593 -0.13965,1.57698 -5.90459,1.11423 -3.59337,-0.28845 -6.74584,-0.18071 -7.00548,0.2394 -0.25965,0.42011 -2.72944,0.64204 -5.48843,0.49318 -2.75899,-0.1488 -5.01634,0.11762 -5.01634,0.5921 0,0.47448 -1.6875,0.76365 -3.75,0.6426 -2.49575,-0.14648 -3.67047,0.18574 -3.51221,0.99328 0.17598,0.89797 -1.77285,1.09526 -7.497,0.75899 -4.25414,-0.24992 -7.85012,-0.79594 -7.99106,-1.21338 -0.33209,-0.98359 -21.37799,-0.95681 -22.93568,0.0292 -0.65227,0.41288 -3.12727,0.30295 -5.5,-0.24429 -5.74461,-1.32495 -6.81405,-1.28488 -6.81405,0.2553 0,0.90652 -1.10501,1.1702 -3.65596,0.87239 -3.05982,-0.35722 -3.55411,-0.16142 -3.03138,1.2008 0.64974,1.69321 -1.11693,2.18248 -6.21545,1.72133 -1.32153,-0.11953 -2.77714,0.37299 -3.23469,1.09448 -0.60447,0.95319 -0.84027,0.76505 -0.86252,-0.6882 -0.0168,-1.1 -0.36123,-1.55 -0.76531,-1 -0.40408,0.55 -2.30969,1.06779 -4.23469,1.15064 -5.87945,0.25304 -6.13831,0.31655 -5.5,1.34936 0.35129,0.56839 -0.50032,1 -1.9731,1 -1.42513,0 -4.21425,0.67818 -6.19805,1.50706 -2.55619,1.06805 -3.97503,1.20154 -4.87063,0.45826 -0.90083,-0.74761 -1.41679,-0.67785 -1.79672,0.24294 -0.38432,0.93142 -1.07001,0.68112 -2.45819,-0.89732 -1.05886,-1.20398 -2.32527,-1.85195 -2.81425,-1.43993 -1.58421,1.33487 -6.38903,3.10751 -6.39022,2.35755 -6.4e-4,-0.40071 -3.03814,-0.83043 -6.75,-0.95494 -10.45947,-0.35084 -12.55002,-0.67628 -12.99898,-2.02362 -0.22909,-0.6875 -0.87717,-1.25 -1.44018,-1.25 -0.56301,0 -0.76464,0.675 -0.44805,1.5 0.74732,1.94749 -1.31156,1.9238 -4.12596,-0.0475 -1.99399,-1.39665 -2.15146,-1.39665 -1.61552,0 0.70262,1.83098 -0.0107,1.94401 -2.81089,0.4454 -1.53358,-0.82075 -2.65391,-0.78383 -4.38871,0.1446 -1.62517,0.86977 -4.08167,1.01369 -8.125,0.47604 -3.18755,-0.42386 -7.25805,-0.74592 -9.04555,-0.7157 -1.7875,0.0302 -3.25,-0.45305 -3.25,-1.07395 0,-0.82867 -0.30476,-0.82415 -1.14589,0.017 -0.8612,0.8612 -2.09357,0.66243 -4.96017,-0.8 -4.34742,-2.21789 -11.0358,-2.65517 -10.64394,-0.69589 0.16403,0.82017 -0.60966,1.09991 -2.25,0.81351 -3.43563,-0.59984 -13.52745,-0.48503 -25.72845,0.29271 -8.83534,0.5632 -10.94644,0.37917 -15.500005,-1.35114 -3.1147,-1.18356 -5.40793,-1.59439 -5.60488,-1.00411 -0.48003,1.43869 -4.01809,1.23232 -10.16409,-0.59285 -8.57164,-2.5455 -9.42218,-2.62134 -7.84159,-0.69919 1.20028,1.45967 1.01133,1.5635 -1.82377,1.00217 -2.000813,-0.39615 -3.541775,-0.16955 -4.194385,0.6168 -1.088887,1.31203 -4.978828,1.50953 -6.857918,0.34819 -0.61275,-0.37871 -1.275489,-0.20436 -1.472753,0.38743 -0.222051,0.66616 -2.748828,0.0394 -6.633904,-1.64551 -6.238445,-2.70554 -6.340933,-2.71494 -17.47675,-1.60348 C 31.540677,109.1107 22,109.87113 16.5,110.18564 11,110.50014 5.0374999,110.98571 3.2499999,111.26467 L -1.3134849e-7,111.77189 0.54830587,137.68126 c 0.301569,0 2.29342103,0.84315 4.42633903,1.87366 2.76273,1.33481 4.186812,1.56488 4.951694,0.8 C 10.69122,139.59004 11,139.76305 11,140.95651 c 0,1.37373 0.449959,1.50417 2.5,0.72475 1.593658,-0.60591 3.429943,-0.59693 5.0651,0.0248 3.336895,1.26869 11.049555,1.25185 13.443494,-0.0294 1.300073,-0.69578 2.685212,-0.6364 4.505872,0.19314 2.090685,0.95259 2.793204,0.93167 3.432147,-0.10216 0.565037,-0.91425 1.006322,-0.97155 1.487404,-0.19314 1.057316,1.71077 3.878869,1.36451 3.204357,-0.39324 -0.865653,-2.25585 0.691736,-1.80231 2.221283,0.64688 0.980867,1.57062 1.548138,1.81133 2.113373,0.89676 0.573775,-0.92839 1.288446,-0.97407 2.776858,-0.1775 1.102329,0.58995 3.297058,1.0666 4.877174,1.05922 1.580116,-0.007 3.547938,0.0771 4.372938,0.18779 0.825,0.11066 2.568853,-0.14273 3.875229,-0.56311 1.604453,-0.51628 2.159224,-0.4148 1.709586,0.31273 -0.391432,0.63335 1.079671,0.46125 3.571082,-0.41777 3.779588,-1.33352 4.328808,-1.33027 5.090108,0.0301 0.46936,0.83869 1.53257,1.5249 2.3627,1.5249 0.83013,0 1.23121,-0.45 0.8913,-1 -0.33992,-0.55 -0.17898,-1 0.35765,-1 0.53662,0 1.16555,0.5625 1.3976,1.25 0.32015,0.94848 1.31331,0.82787 4.11726,-0.5 2.03244,-0.9625 4.83163,-1.75 6.22043,-1.75 1.42875,0 2.25675,-0.43418 1.90706,-1 -0.61423,-0.99384 0.0254,-1.12768 6.25,-1.30781 C 100.5375,139.32175 102,138.91982 102,138.48033 c 0,-0.43949 0.43588,-0.79907 0.96862,-0.79907 0.53273,0 0.70959,0.675 0.39301,1.5 -0.31659,0.825 -0.0775,1.5 0.53138,1.5 0.60885,0 1.10699,-0.49878 1.10699,-1.10841 0,-0.65446 0.93384,-0.87403 2.28015,-0.53613 3.14884,0.79031 6.71985,-0.29298 6.71985,-2.03851 0,-0.99164 0.86905,-1.3498 2.75,-1.13337 1.5125,0.17403 3.2,-0.22101 3.75,-0.87788 0.73347,-0.87599 2.33008,-0.93869 5.99045,-0.23528 2.74475,0.52746 5.66975,0.66999 6.5,0.31674 2.14798,-0.91391 22.91235,-1.04132 22.35437,-0.13716 -0.45487,0.73707 0.67673,0.91018 7.65518,1.17106 1.925,0.072 4.5125,0.48699 5.75,0.92228 1.88702,0.66376 2.25,0.43996 2.25,-1.38724 0,-1.93887 0.37668,-2.10802 3.42202,-1.53671 1.88211,0.35309 3.66126,0.25488 3.95367,-0.21824 0.2924,-0.47313 2.6655,-0.73977 5.27354,-0.59254 2.60805,0.14723 5.2164,-0.0323 5.79634,-0.39887 0.57994,-0.3666 3.64374,-0.52226 6.80844,-0.3459 5.1251,0.2856 5.68103,0.13045 5.08627,-1.41948 -0.55461,-1.44528 -0.22155,-1.65482 1.96572,-1.23669 1.44841,0.27688 2.4257,0.16723 2.17176,-0.24366 -0.25395,-0.41089 1.13699,-0.93371 3.09097,-1.16183 1.95397,-0.22811 3.77692,-0.0519 4.05099,0.39153 0.27407,0.44346 0.94831,0.80629 1.49831,0.80629 0.55,0 0.73836,-0.42334 0.41858,-0.94077 -0.34485,-0.55798 0.85098,-0.70831 2.93899,-0.36948 4.83791,0.78509 12.21394,-1.39456 12.84161,-3.79474 0.38247,-1.46261 1.41062,-1.89501 4.50584,-1.89501 2.20565,0 4.18179,-0.51453 4.39142,-1.1434 0.28394,-0.85184 0.94268,-0.84287 2.58333,0.0352 1.83935,0.98438 2.2022,0.91724 2.2022,-0.4075 0,-1.24266 0.75543,-1.00988 3.48905,1.07515 2.75758,2.10332 3.60438,2.36066 4.03921,1.2275 0.31281,-0.81516 1.93543,-1.4565 3.76096,-1.48653 6.14104,-0.10099 11.96039,-1.08626 12.60836,-2.13469 0.35859,-0.58021 2.21583,-1.06748 4.1272,-1.08281 4.53758,-0.0364 14.06516,-1.05352 15.97522,-1.70545 1.26384,-0.43136 1.22448,-0.66664 -0.25,-1.4944 -0.9625,-0.54034 -1.75,-1.50008 -1.75,-2.13275 0,-0.83947 0.32426,-0.82605 1.2,0.0497 1.45112,1.45112 3.16536,1.60018 2.3,0.2 -0.35956,-0.58179 0.63661,-1 2.38197,-1 1.65,0 3.26309,0.4257 3.58465,0.94599 0.61815,1.00019 8.53338,1.04277 8.53338,0.0459 0,-0.32071 1.67053,-0.69562 3.71229,-0.83313 2.04176,-0.1375 3.91285,-0.45057 4.15799,-0.69571 0.24514,-0.24513 1.01728,0.0287 1.71588,0.60845 0.90942,0.75476 2.18195,0.58265 4.4805,-0.60597 1.98144,-1.02464 4.32473,-1.43725 6.12155,-1.07789 1.60117,0.32024 2.69353,0.23003 2.42748,-0.20044 -0.26605,-0.43048 -0.0932,-1.41458 0.38411,-2.18688 0.72246,-1.16896 1.69926,-1.01477 5.831,0.92043 2.72974,1.27854 5.35092,2.08498 5.82484,1.79208 0.47392,-0.2929 2.77997,-0.18176 5.12455,0.24698 2.34459,0.42873 4.50475,0.38817 4.80036,-0.0902 0.67992,-1.10013 10.52769,-1.13836 13.60435,-0.0528 2.80704,0.99041 8.37583,0.0651 7.7584,-1.28916 -0.71801,-1.57487 7.78117,-2.52816 13.26606,-1.48797 6.52504,1.23744 12.79064,1.23012 12.79064,-0.015 0,-0.62005 0.9873,-0.59988 2.71074,0.0554 2.04038,0.77576 3.70965,0.65018 6.75,-0.50779 2.22159,-0.84612 5.38926,-1.56903 7.03926,-1.60645 20.38055,-0.46221 45.7899,-0.3058 46.1545,0.28412 0.81055,1.31147 6.10987,0.80643 6.663,-0.635 0.54712,-1.42578 5.11662,-0.96971 13.51337,1.34875 3.4935,0.9646 6.80312,0.0338 8.40382,-2.36345 0.45326,-0.67882 0.74055,-0.42995 0.75,0.6497 0.0105,1.19592 0.80686,1.75 2.51531,1.75 1.375,0 2.5,-0.47039 2.5,-1.04531 0,-0.65305 1.31343,-0.79892 3.5,-0.38871 1.925,0.36113 3.5,0.25587 3.5,-0.23392 0,-0.48979 3.49125,-1.43987 7.75833,-2.11129 9.50859,-1.49617 11.97239,-1.5286 12.42741,-0.16354 0.19383,0.58147 1.12874,0.75932 2.07759,0.39521 0.94885,-0.3641 1.47621,-1.06486 1.17191,-1.55722 -0.77988,-1.26188 3.1102,-1.11169 7.82961,0.30228 3.67478,1.10099 4.14029,1.0204 5.77631,-1 1.17975,-1.45694 2.88743,-2.197496 5.06723,-2.197496 6.82423,0 20.68665,2.273246 28.5627,4.683906 8.69464,2.6612 11.27208,2.50946 14.9819,-0.88202 1.18415,-1.08254 3.43415,-2.06736 5,-2.1885 1.56586,-0.12113 4.04541,-0.57267 5.51013,-1.00342 1.47252,-0.433036 6.61382,-0.23101 11.5,0.45191 4.86028,0.6793 14.48459,1.31122 21.38735,1.40427 6.90276,0.0931 13.16674,0.55006 13.91994,1.01556 1.0146,0.62706 1.20283,0.41212 0.72639,-0.82946 -0.59307,-1.54551 -0.41059,-1.55561 2.34642,-0.1299 2.44923,1.26655 3.74701,1.34195 7.18113,0.41724 2.30539,-0.62078 5.94833,-0.84778 8.0954,-0.50445 2.47166,0.39523 4.44366,0.17617 5.37544,-0.59714 2.63765,-2.189046 5.93736,-2.402226 21.30481,-1.37642 8.23282,0.54956 13.20462,0.40065 17.5,-0.524116 7.39979,-1.59314 13.42248,-1.42338 22.78357,0.642206 3.96904,0.87579 9.46643,1.75124 12.21643,1.94545 2.75,0.1942 3.96157,0.1208 2.69237,-0.16311 -1.2692,-0.28392 -2.13161,-1.04402 -1.91646,-1.68912 0.25563,-0.766486 3.37851,-1.204156 9.01268,-1.263136 4.78688,-0.0501 9.22542,-0.59145 9.97931,-1.21713 1.03081,-0.8555 2.38128,-0.62051 5.60756,0.97572 3.65458,1.808136 4.58632,1.922476 6.65305,0.8164 1.65605,-0.88629 2.80257,-0.97014 3.6874,-0.26967 1.55199,1.228616 6.91249,2.301706 6.26508,1.254156 -1.00181,-1.620956 4.149,-1.759016 12.33281,-0.33056 9.65731,1.68565 13.75701,1.27337 17.62975,-1.772926 1.95183,-1.53531 3.35643,-1.89445 5.35145,-1.36829 4.22779,1.11502 13.18138,1.34978 13.79209,0.36163 0.30311,-0.49044 1.02032,-0.60171 1.59381,-0.24728 0.57349,0.35444 1.3299,0.20674 1.6809,-0.32822 0.38905,-0.59293 3.31134,-0.68943 7.48548,-0.24717 7.2489,0.76802 10.51813,0.35276 12.15272,-1.54366 0.55,-0.6381 4.00104,-1.72661 7.66899,-2.4189 6.39159,-1.20636 6.91152,-1.15115 12.5,1.32748 7.04607,3.12511 8.11129,3.27207 16.10282,2.22163 5.07004,-0.66643 6.73993,-0.51768 8.71482,0.77632 1.34365,0.88041 3.09634,1.60074 3.89485,1.60074 0.79852,0 1.60185,0.43341 1.78519,0.96314 0.21168,0.611646 2.70551,0.577836 6.83333,-0.0926 13.25369,-2.15273 17.52491,-2.57545 18.5,-1.83096 1.50874,1.15195 12.33679,1.03354 13.06384,-0.14286 0.39576,-0.64036 1.37327,-0.35861 2.59649,0.74839 1.59295,1.44161 2.1183,1.52211 2.79435,0.42823 0.4899,-0.79268 1.85874,-1.15098 3.32575,-0.87055 1.45019,0.27723 3.42693,-0.22773 4.72527,-1.20707 1.67952,-1.26687 3.19611,-1.50739 6.1262,-0.97158 2.95644,0.54062 4.87934,0.22463 7.98571,-1.31228 3.16931,-1.56807 4.68781,-1.8069 6.73701,-1.05958 1.9282,0.70323 3.5942,0.55396 6.1454,-0.5506 3.1753,-1.37478 11.1438,-1.67629 25.74998,-0.97433 5.3139,0.25538 28.4505,-3.02772 30.5883,-4.34049 1.6657,-1.02291 5.4887,-1.18619 16.6617,-0.7116 13.1545,0.55875 15.4709,0.38889 24.9624,-1.83051 7.4165,-1.73418 12.4385,-2.33476 17.25,-2.06289 5.891,0.33287 6.7876,0.15726 6.7876,-1.32935 0,-1.4563 0.4858,-1.57354 3.2434,-0.78269 4.6031,1.32016 9.6208,1.08329 14.2566,-0.67302 2.2,-0.83349 6.9968,-2.17396 10.6595,-2.97884 3.6627,-0.80487 9.2428,-2.35219 12.4002,-3.43848 4.1407,-1.42461 6.098,-1.67848 7.023,-0.91086 0.7052,0.58532 4.1208,1.46544 7.5902,1.95583 4.8758,0.68919 7.3242,0.54661 10.7839,-0.62799 2.7439,-0.9316 8.3584,-1.54907 14.5095,-1.59574 20.8325,-0.15806 33.7499,0.33308 36.3473,1.38199 1.4775,0.59666 7.8395,1.21579 14.1377,1.37585 10.169,0.25843 11.7693,0.0645 14.2918,-1.73167 1.8994,-1.35248 3.6551,-1.81826 5.2988,-1.40572 1.4739,0.36992 2.4581,0.18468 2.4581,-0.46265 0,-0.72977 2.1873,-0.87097 6.75,-0.43573 4.1352,0.39445 8.4932,0.18411 11.25,-0.54299 4.7469,-1.25196 18.1558,-2.6105 34,-3.44474 5.225,-0.27511 12.2,-0.95543 15.5,-1.51183 3.3,-0.5564 6.3533,-1.01424 6.7852,-1.01742 0.4318,-0.003 0.2683,-0.97163 -0.3635,-2.1521 -1.0295,-1.92364 -0.9293,-2.08894 0.9662,-1.59326 1.1632,0.30418 1.8938,0.19542 1.6237,-0.24168 -0.8886,-1.43781 7.9093,-2.09262 14.8706,-1.10679 3.7567,0.53202 7.0301,1.167 7.2742,1.41107 0.244,0.24407 2.1087,0.0604 4.1437,-0.40821 2.2027,-0.50723 6.1344,-0.43497 9.7162,0.17855 4.9493,0.84778 6.5454,0.75463 9,-0.52526 1.641,-0.85569 3.9587,-1.55857 5.1504,-1.56195 1.1916,-0.003 2.3166,-0.35992 2.5,-0.79229 0.1833,-0.43236 1.6833,-1.69994 3.3333,-2.81684 2.3069,-1.56157 3.8664,-1.87837 6.75,-1.3713 2.0625,0.36269 3.75,0.25371 3.75,-0.24217 0,-0.49588 0.4364,-0.63189 0.9698,-0.30224 1.0207,0.63082 16.457,2.77414 19.0302,2.64233 0.825,-0.0423 4.0799,-0.44775 7.2331,-0.90108 3.8147,-0.54844 5.8796,-0.47262 6.171,0.2266 0.2712,0.65057 0.4681,0.6039 0.517,-0.12253 0.057,-0.84455 0.8802,-0.77362 2.9383,0.25311 3.0088,1.501 9.5714,0.92633 8.5369,-0.74756 -0.3407,-0.55126 1.4475,-0.65649 4.4309,-0.26073 2.7512,0.36496 8.0677,0.12971 11.8145,-0.52276 5.043,-0.87819 6.9103,-0.89283 7.1891,-0.0564 0.2551,0.76548 0.9076,0.64974 2.0229,-0.35885 1.753,-1.58524 7.4599,-3.64699 15.6826,-5.66563 4.4327,-1.08822 6.2747,-0.96696 15.37,1.01176 7.3107,1.5905 11.9806,2.07514 15.9637,1.65671 8.2262,-0.86419 35.6143,-1.07306 36.8953,-0.28137 0.6031,0.37272 1.3792,0.22034 1.7246,-0.33863 0.3455,-0.55897 2.7968,-1.01631 5.4474,-1.01631 4.1037,0 19.948,-4.80897 16.3127,-4.95112 -1.7919,-0.0701 -1.5504,-2.04888 0.25,-2.04888 0.825,0 1.5,0.42171 1.5,0.93713 0,0.86218 2.1468,0.75784 10.6494,-0.51759 1.7322,-0.25984 4.7569,-1.56328 6.7216,-2.89654 1.9646,-1.33326 3.8199,-2.02306 4.1229,-1.53289 0.3029,0.49017 1.8993,0.13042 3.5475,-0.79945 2.6423,-1.49073 3.1127,-1.51327 3.9776,-0.19066 0.872,1.33333 1.0904,1.33333 1.9657,0 0.7609,-1.15905 0.9882,-1.19155 1,-0.14301 0.01,0.75238 0.6418,1.11659 1.4213,0.81744 0.7734,-0.29676 2.18,0.31562 3.1259,1.36083 1.319,1.4575 2.1566,1.66663 3.594,0.89738 1.3243,-0.70877 1.8741,-0.66753 1.8741,0.14058 0,0.71283 0.9186,0.91304 2.4387,0.53152 1.3413,-0.33665 2.7224,-0.15309 3.0691,0.4079 0.3467,0.56099 1.069,0.7489 1.6051,0.41758 0.5361,-0.33132 1.546,-0.12831 2.2441,0.45113 1.4404,1.19542 8.8798,0.31083 8.093,-0.9623 -0.2807,-0.45414 1.2684,-1.30468 3.4424,-1.89008 2.174,-0.5854 4.1001,-1.44022 4.2802,-1.89961 0.4071,-1.03861 18.4174,1.45956 21.8274,3.02764 2.8573,1.31392 4.0504,1.60207 9.2055,2.22334 2.038,0.24562 4.2258,0.76817 4.8618,1.16123 0.636,0.39306 1.4497,0.23995 1.8083,-0.34024 0.451,-0.72977 3.1134,-0.62156 8.6382,0.35107 4.3924,0.77329 9.3972,1.14993 11.1217,0.83698 1.799,-0.32648 3.4225,-0.10449 3.809,0.52081 1.0866,1.7582 2.74,1.2495 2.1457,-0.66019 -0.2995,-0.9625 -0.154,-2.37196 0.3233,-3.13213 0.6761,-1.07668 1.024,-0.89017 1.5744,0.84396 l 0.7065,2.22609 2.7818,-2.6651 c 2.5706,-2.46286 3.0845,-2.58355 6.7722,-1.59057 2.1948,0.59099 5.1296,1.97052 6.5218,3.06562 3.4096,2.682 11.7298,1.83591 11.7298,-1.19281 0,-1.15578 0.4434,-1.64906 1.1113,-1.2363 1.1318,0.69953 6.584,1.4427 12.8887,1.75684 1.925,0.0959 3.8615,0.73987 4.3034,1.43101 0.6093,0.95307 1.3062,0.98749 2.8851,0.14251 1.6684,-0.89292 1.8067,-1.28824 0.6966,-1.9913 -1.1007,-0.69711 -1.0258,-0.88034 0.3649,-0.89251 0.9625,-0.008 1.75,-0.68067 1.75,-1.49387 0,-1.2095 0.4496,-1.27373 2.4704,-0.35298 1.8608,0.84783 2.8259,0.83055 3.911,-0.07 0.9097,-0.75498 1.6649,-0.83261 2.0493,-0.21066 0.3348,0.54171 1.3873,0.94752 2.339,0.9018 0.9517,-0.0457 3.8678,0.25901 6.4803,0.67718 3.3983,0.54394 4.75,0.42663 4.75,-0.41226 0,-0.67955 0.5224,-0.84973 1.2423,-0.40475 0.6833,0.4223 3.9458,0.91212 7.25,1.08849 6.16,0.3288 23.1878,5.72658 29.2103,9.25959 2.1828,1.28053 6.8,2.21574 14.5,2.93704 14.8771,1.39359 47.7974,1.4142 47.7974,0.0299 0,-0.66507 0.8045,-0.60653 2.25,0.16372 2.0751,1.10573 2.1381,1.06332 0.8104,-0.54569 -1.332,-1.61427 -1.1826,-1.69945 2,-1.14031 1.8918,0.33236 6.3646,0.81146 9.9396,1.06466 3.575,0.25321 8.525,0.80518 11,1.22659 l 4.5,0.76621 z" fill="#fff"/>
</svg>
