<svg xmlns="http://www.w3.org/2000/svg" width="1920" height="188">
  <path style="fill:white;stroke:none;" d="M1919 149.01904c0 1.13893-4.4672 1.0674-15-.24021v.00001c-18.5803-2.30665-31.2612-4.82867-33.9672-6.75545-1.5369-1.09443-7.2356-3.99364-12.6636-6.4427-8.5031-3.83645-11.1037-4.53711-18.7873-5.06166-4.905-.33486-9.2831-.83434-9.729-1.10996-.446-.27562-3.8925-1.08831-7.659-1.80598-6.6222-1.2618-6.8785-1.23555-7.771.79603-.7413 1.68741-1.7101 2.06215-4.9229 1.90408-2.2-.10824-5.2375-.25083-6.75-.31688-1.5125-.0661-2.75-.5196-2.75-1.00789 0-1.43851-7.0055-2.37294-8.2747-1.10373-.6189.61891-3.4406 1.1253-6.2703 1.1253-3.8421 0-5.5947-.49693-6.9209-1.96235-.9768-1.0793-3.3308-2.47552-5.2312-3.10271-2.9792-.98322-3.7549-.87879-5.6291.75791-1.1956 1.04404-3.4069 2.51396-4.9141 3.26648-2.3642 1.18048-2.9817 1.15783-4.5-.16506-.9678-.84331-2.3393-1.3238-3.0478-1.06776-.7084.25605-4.3084-.0945-8-.77906-3.6915-.68454-8.0619-1.3862-9.7119-1.55925-7.1888-.75397-15.1479-2.80545-17.4781-4.505-3.2546-2.37382-16.3491-5.10004-20.6347-4.29606-1.8238.34214-3.8371 1.25-4.474 2.01747-.637.76746-2.7802 1.39539-4.7628 1.39539-5.5125 0-19.5492-3.22155-20.4501-4.69347-.4398-.71859-2.0898-1.30653-3.6667-1.30653-1.5768 0-3.0558-.5625-3.2866-1.25-.3278-.97627-1.0027-.93944-3.0819.16817-1.4641.78-2.9108 1.16948-3.2147.86551-.304-.30396-2.7845.29536-5.5123 1.33183-2.7277 1.03647-7.3823 1.88449-10.3435 1.88449-2.9612 0-8.4493.94679-12.1958 2.10397-4.4151 1.3637-8.2151 1.91575-10.8001 1.56904-2.1935-.29422-4.8293-.0848-5.8574.46542-1.2068.6459-2.2894.65768-3.0552.0332-1.4267-1.16333-22.3976-2.68079-32.1861-2.32899-5.4256.195-9.2983-.43377-17.2183-2.79555-10.6708-3.18205-15.2817-3.78043-15.2817-1.98317 0 .58518-1.2375.93723-2.75.78233-1.5125-.1549-4.7423.0943-7.1772.55387-3.7257.70311-4.6369.54884-5.75-.97346-1.1446-1.56524-1.3228-1.59019-1.3228-.18523 0 2.19818-3.1535 3.04257-11.1754 2.99235-9.5388-.0597-14.8246-1.09554-14.8246-2.90506 0-.82249-.3375-1.32171-.75-1.10937-6.5735 3.38373-8.6183 3.87068-11.4056 2.71614-1.593-.65982-3.7782-2.43823-4.8561-3.95202-2.6184-3.67714-7.1136-4.27087-13.4741-1.77964-8.148 3.19138-18.1008 2.60906-23.6664-1.38467-1.2815-.9196-2.9074-.88445-7.2473.15669-4.3789 1.05047-6.4362 1.09029-9.4639.18318-5.4782-1.64132-17.6327-1.47101-21.0477.29493-1.5464.79971-5.7671 2.19637-9.3791 3.1037-4.556 1.14442-6.414 2.04967-6.0663 2.95564.8108 2.11303-2.7164 2.60387-17.8553 2.48467-7.8585-.0619-15.4132-.0786-16.7882-.0372-1.375.0414-4.3-.01-6.5-.11438-6.5134-.30893-9.7019-.10058-15.2589.99707-3.9979.78968-6.514.71323-10.4927-.31884-3.5971-.93308-5.4369-1.02871-5.8837-.3058-.3758.6081-1.7946.76453-3.3633.37082-1.7964-.45088-3.5502-.13251-5.1904.94218-3.0181 1.97754-13.3896 1.35784-25.811-1.54224-13.458-3.14207-18.5293-3.89137-31-4.58031-14.5353-.803-20.221-.62904-22.6937.69432-1.8906 1.0118-2.8004.84579-13.1322-2.39614-5.1309-1.60995-8.9902-1.20062-28.4038 3.01261-4.6662 1.01269-9.305 1.3521-13.0828.95725-3.4763-.36335-6.2648-.20012-6.8669.40197-.6809.68098-3.0361.68804-7.1749.0215-4.6622-.75083-8.653-.62012-16.4034.53727-5.6333.84122-12.0423 1.23767-14.2423.88101-8.8131-1.42879-24.8743-2.28714-27.3673-1.46258-5.1151 1.69178-30.1633 1.83822-36.6164.21406-4.1798-1.05199-7.7975-1.28644-12-.77768-3.309.40059-8.9413.90487-12.5163 1.12063-7.298.44044-18.9643 1.25144-23.5 1.63363-1.65.13903-3.5822.62903-4.2938 1.08888-.7265.46945-1.8227.39899-2.5-.16068-1.7223-1.42327-14.13686-2.37151-28.9562-2.21171-8.32994.0898-12.75-.22672-12.75-.9131 0-.57783-.70714-1.0506-1.57143-1.0506-.86428 0-2.24643-.675-3.07143-1.5-1.08635-1.08635-3.73308-1.5-9.59771-1.5-7.21263 0-8.69984-.33982-13.6066-3.10902-4.99823-2.82083-6.0421-3.0487-11.26089-2.45826-3.16361.35792-7.06371 1.30513-8.66691 2.1049-2.49431 1.24433-4.01943 1.26497-10.56996.14305-4.21029-.72101-7.65507-.94416-7.65507-.49579 0 1.37128-11.84812.90551-15.47092-.60819-3.07939-1.28666-3.76913-1.23862-7.17932.5-4.75252 2.42297-8.12189 2.41685-17.9237-.0326-5.53178-1.38237-8.19627-1.64969-9.08567-.91155-1.3456 1.11675-7.02197.29455-9.01203-1.30535-.74823-.60154-1.86605-.50828-3.09318.25808-1.60893 1.00479-2.5566.76849-5.82506-1.45249-2.1506-1.46136-4.05965-2.18411-4.2512-1.60946-.22642.67924-2.89952.81181-7.66383.38007-6.76246-.61279-7.30399-.5207-7.15562 1.21686.13612 1.59392-.43439 1.83215-3.75122 1.56636-2.15146-.17241-7.32646-1.40416-11.5-2.73724-4.17354-1.33307-8.75075-2.42951-10.17158-2.43653-1.42084-.007-2.92105-.35027-3.33381-.76277-.41276-.4125-6.22526-.608548-12.91666-.435661-8.07183.208552-14.80556-.201874-20.00892-1.219559-6.17804-1.208314-8.92071-1.30271-12.92137-.444724-6.11524 1.311486-30.54094.559838-33.51405-1.031321-1.17549-.629102-3.9422-.844676-6.44246-.501977-2.77935.380952-6.74083-.02688-10.83079-1.115024-11.67697-3.106687-18.70987-4.214845-20.47616-3.22638-.9189.514244-2.92568.683999-4.45951.377233-1.99151-.3983-3.28891-.0051-4.53815 1.375271-3.1458 3.476068-7.59109 3.496055-14.7772.06644-3.56594-1.701866-7.54419-3.104893-8.84056-3.117838-1.29637-.01295-5.7016-.912945-9.7894-2C622.15795 85.607145 619.64692 85.515589 618 87.5c-1.44296 1.738661-5.27593 1.957877-8.07168.461638-1.37222-.73439-3.13244-.681159-6.01286.181837-3.32029.994783-4.22536.973137-4.8992-.11717-.6489-1.049939-2.62004-1.167088-9.1714-.545076-4.58967.435762-9.81513.888526-11.61214 1.006143-1.797.117617-3.5595.506074-3.91666.863238-.99453.994526-5.12253.771548-5.79275-.3129-.38053-.615708-1.39224-.613004-2.80902.0075-1.64801.721784-4.13232.350184-9.71429-1.453048-4.125-1.332565-7.65-2.010944-7.83333-1.507507-.44247 1.21503-5.82061 1.164152-10.17327-.09624-1.92137-.556369-6.1934-1.051517-9.4934-1.10033-3.3-.04881-9.25299-.720557-13.22886-1.492764-4.6677-.906574-10.33646-1.207009-16-.847973-22.10857 1.401553-24.70024 1.396211-30.32966-.06252C461.35853 80.519897 455 80.512924 455 82.469549c0 1.634464-6.2085 1.910558-9.15401.407081-.90971-.464341-6.83039-1.057725-13.15708-1.31863-9.24743-.381353-12.15857-.874017-14.84598-2.512448C413.85806 76.616108 413 76.515387 413 78.477081c0 1.054148-1.07374 1.454589-3.75 1.398527-2.0625-.04321-9.08429.177461-15.60398.49037-9.64099.462715-12.12793.294972-13.32143-.898526-1.97066-1.970665-3.06916-1.847616-3.79032.424577-.71477 2.252049-3.75437 3.213951-7.67697 2.429432-1.56492-.312986-4.15719-.02567-5.76058.638477-2.25532.934184-3.41734.938838-5.13317.02056-1.5877-.849715-2.40981-.87647-2.8933-.09416-.89176 1.442891-20.83262 1.535168-26.57025.122956-.55-.135373-2.9125-.192843-5.25-.127711-3.00727.08379-4.25.54576-4.25 1.579877 0 2.314563-7.58943 3.832094-16.25 3.249239-4.95178-.333254-7.75-.152544-7.75.500497 0 .562139-.9.786715-2 .499059-1.1-.287656-2-.126105-2 .359003s-6.9752.78048-15.50046.656381c-12.59481-.183339-15.50037.03212-15.5 1.149365.00035 1.029608-.81592 1.19749-3.24954.668336-1.7875-.388665-5.31997-.84294-7.84993-1.009501-2.52996-.166561-5.45496-.75324-6.5-1.303732-2.37363-1.25035-13.4078-2.616304-19.43847-2.406348-2.49613.0869-6.07312-.282146-7.94888-.820107-2.40399-.689456-3.61522-.646822-4.10426.144468-.4094.662423-1.76256.854334-3.30113.468179C205.65464 86.1262 205 86.343294 205 87.480948c0 .878586-.94865 1.561827-2.25 1.620505-1.2375.0558-4.01433.260163-6.17073.454143-2.15641.193979-4.53264.01025-5.28052-.408283-.74788-.418535-4.60855-.161813-8.57927.570492-13.41898 2.474816-14.36869 2.541466-16.82532 1.180789-1.31679-.72934-4.64416-1.217198-7.39416-1.084129-2.75.13307-7.475-.217555-10.5-.779166-3.025-.561611-7.3-1.259725-9.5-1.551365-2.2-.29164-5.35-.743414-7-1.003941-1.65-.260527-6.69574-.675302-11.21275-.921722-4.51702-.24642-9.02181-.881027-10.01065-1.410238-.98884-.52921-3.01812-.728939-4.50951-.443842-1.851.353841-4.1895-.347735-7.368064-2.210498-4.278926-2.507618-4.958602-2.629135-8.383405-1.498848-2.916653.962582-4.217036.967728-5.981023.02367-1.239734-.663485-5.467182-1.212611-9.39433-1.220279-4.826434-.0094-9.67246-.822657-14.954367-2.509558-7.205838-2.301355-7.908538-2.366464-9.027326-.83643-1.022183 1.397918-1.917531 1.502671-5.685901.665235-15.199544-3.377758-25.615413-4.50456-26.619605-2.879744-.796394 1.288593-10.819932.089317-14.3016118-1.711129C2.3731557 70.658726 1 69.27364 1 68.44864V24.373595c0-.820396.45-1.213514 1-.873595.55.339919 1 .141476 1-.440983 0-1.357692 14.322072-1.40043 24.177641-.072148C31.204938 23.529648 36.525 24.138251 39 24.339321c9.096148.738975 26.543705 4.010382 28.005929 5.251095 2.223112 1.886334 16.751654 8.914774 22.34913 10.811787 2.670282.904972 8.295282 1.821005 12.500001 2.035628 4.20472.214623 10.90744 1.051633 14.89494 1.860021 3.9875.808389 7.25 1.08245 7.25.609026 0-.473425 1.16914-1.626824 2.5981-2.56311 2.08214-1.364274 2.97309-1.468146 4.48643-.523053 1.03858.648607 3.13194 1.182057 4.6519 1.185446 1.51996.0034 3.98128.641435 5.46959 1.417881C143.85165 45.804253 148 45.537271 148 43.986792c0-1.144226 10.82274-1.082616 11.53241.06565 1.09431 1.770626 8.63134 5.098698 10.19129 4.500091.84139-.322871 2.16314-.06141 2.93722.581021 1.0874.902461 2.62.755892 6.74014-.644587 5.13115-1.74413 5.49839-1.744972 9.71583-.02227C195.02828 50.881334 200 51.990511 200 50.894689c0-1.328227 2.12718-1.07679 5.42073.640743 2.00253 1.044285 3.2443 1.199535 3.95.49384 1.58119-1.581194 5.7296-1.233285 12.22272 1.025066 3.87608 1.348127 8.86235 2.122168 14.50485 2.251656 5.69868.130776 9.17434.675384 10.30642 1.614935 1.47441 1.22365 1.6662 1.223423 1.4017-.0017-.49148-2.276425 5.56807-2.289556 10.69161-.02317 2.50917 1.109924 5.22359 1.764214 6.03205 1.45398.80845-.310188 1.46992-.125123 1.46992.411303 0 1.474254 7.39614 2.566043 18 2.657089 5.225.04486 10.02407.421873 10.66459.8378.64376.418028 1.35322.194418 1.58636-.5.33793-1.006508.95127-1.007747 3.08541-.0062 5.83256 2.737121 7.43633 3.183361 14.47155 4.026611 5.52161.661827 7.93028.553046 9.85408-.44503 2.88-1.494162 4.33087-1.001763 4.35332 1.477436.0127 1.401611.17078 1.445297.92379.255285.7215-1.140228 1.20986-1.185568 2.37292-.220311 1.62797 1.351094 9.74606.527362 10.80942-1.096818.91285-1.394274 11.57129-1.926023 15.70846-.783694 2.82311.779498 3.9233.664863 5.26404-.548495 2.04189-1.847887 10.34786-2.182 23.90606-.961635 5.225.470298 11.65355.89819 14.28566.950869 2.63211.05268 5.10711.590614 5.5 1.195408C407.61989 66.883811 419 68.239762 419 67.054977c0-1.184365 10.22533-1.975471 12.18453-.942684 1.02037.537887 2.77515.473334 4.45076-.163729 1.97572-.751167 4.15398-.718807 7.62232.113237 4.30557 1.032889 5.00226.965064 6.1454-.598273 1.57981-2.160515 13.91004-3.278532 16.1013-1.45995 2.06876 1.716919 10.31442.203646 11.55869-2.121293.66017-1.233547 2.11537-1.89071 4.22218-1.906731 1.76815-.01345 5.01703-.440931 7.21972-.949968 2.66163-.615095 5.34489-.551423 8 .189834C501.54153 60.621552 514 61.016698 514 59.770313c0-.514434 1.9125-.821839 4.25-.683121 2.3375.138717 6.3875.175847 9 .08251C531.27677 59.025839 532 58.69548 532 57c0-1.754946.66667-2 5.44098-2 2.99254 0 5.67245.374522 5.95536.832272.57781.934911 11.48875.656362 14.7426-.376369 1.23897-.393236 2.41507-.177524 2.84758.522283.54872.887856 1.7055.924746 4.53131.144503 2.08696-.576238 4.16905-.816206 4.62687-.53326.45781.282946.5644-.183925.23686-1.037491-.86634-2.257643 4.76224-2.046517 9.42032.353351 5.09729 2.626148 13.35131 4.464884 14.16108 3.154644.59814-.967816 5.32738-.48538 14.81418 1.511215 2.28574.481058 3.79834.237573 5-.804858 2.4046-2.085971 7.51029-2.013428 16.73981.237845 5.8373 1.42384 8.09369 1.625866 8.62145.771925.52102-.843022 1.62984-.875842 4.08922-.121038 2.4739.75926 4.54295.690576 7.75351-.257388 2.40853-.711154 4.8088-1.027461 5.33395-.702905.52514.324556 4.18236.504676 8.12716.400266 3.9448-.104411 9.21229.267321 11.70554.826071 2.49325.558749 8.99247 1.202234 14.4427 1.429966 5.45024.227733 11.22378 1.024121 12.83011 1.769753 2.28516 1.060741 3.01038 1.086295 3.33333.117455.59576-1.787268 3.68824-1.533239 11.34141.931628 6.53865 2.105915 6.81829 2.116753 9.48764.367725 2.31177-1.514729 2.92319-1.581691 3.83372-.419868 1.17352 1.497382 1.18325 1.497354 23.42509-.06606 12.37353-.869752 14.75491-.794468 17.35205.548563 2.85119 1.47441 3.13819 1.436485 5.43123-.71772l2.42098-2.274387 9.73723 2.195938C795.13876 65.011828 800.33468 66 801.32977 66c.9951 0 5.26548 1.449695 9.48975 3.221544 8.27625 3.471437 9.61343 3.557853 12.68048.819482 3.57286-3.189982 13.43433-3.356541 26-.439137 6.05 1.404644 13.475 2.506871 16.5 2.449394 3.025-.05748 7.07474.358249 8.99942.923835 2.32623.683582 3.61137.692503 3.83334.02661.45358-1.360757 3.31197-1.208746 5.26647.280075 1.66039 1.264789 14.49022 1.387753 22.72439.217797 2.37799-.337878 8.73168.08649 14.11933.943038 11.24027 1.787024 21.73162 2.011789 25.58153.548054 1.94664-.740111 3.89768-.61155 7.3151.482018 14.6709 4.694659 18.39045 5.422187 20.55598 4.020664 1.59634-1.033137 4.09634-1.187921 10.35444-.64108 4.5375.396492 8.25.366928 8.25-.0657 0-1.470493 4.48878-.780815 7.3972 1.136542 2.3326 1.537754 3.2627 1.682627 4.773.743411 1.4788-.91966 2.4559-.834665 4.617.401604 1.8639 1.066272 3.6468 1.325938 5.571.811341 1.9182-.513007 5.9915.0718 12.6443 1.815337l9.8145 2.572148 4.6321-2.242318c3.1948-1.546576 5.4727-2.031465 7.3414-1.562759 1.4902.373757 4.2845.773212 6.2095.887677 1.925.114465 4.0625.559195 4.75.988287.7385.46094 1.25.290011 1.25-.417737 0-1.192247 3.2685-1.049636 16.4055.715797 3.7525.504285 5.1628.310198 6-.825748 1.1617-1.576098 18.5936-3.51283 18.5955-2.066011.0006.415709 2.2057 1.994084 4.9004 3.5075 4.3674 2.452957 5.7673 2.724499 12.8955 2.501415 6.0187-.188362 8.4546.131028 9.8497 1.291464 4.4984 3.741869 6.5978 4.119421 17.4094 3.130903 7.3048-.667881 11.0451-.629341 12.444.128222 3.1479 1.704795 9.5 1.772664 9.5.101503 0-1.801281 1.1203-1.781442 3.5589.06302 2.3115 1.74836 9.5686 2.004337 11.1786.394301.8201-.820052 2.2632-.851758 5.1713-.113612 3.1735.805522 4.9931.678954 8.5315-.593453 3.4255-1.231802 5.1606-1.370045 7.2787-.579927 1.5295.570579 3.906.719364 5.281.330635 4.3073-1.217721 16.2754-.942203 21.6897.49932 2.8544.759947 5.4241 1.147427 5.7104.861066.2864-.28636 6.3078-.629445 13.3809-.762411 7.4552-.140146 13.7824-.735249 15.0542-1.415916 1.5934-.852789 3.2163-.89022 5.9294-.136758 2.0545.570572 6.6634 1.039914 10.242 1.042981 3.5786.0031 8.056.449935 9.9497.99304 2.5056.718612 6.0176.548611 12.8992-.6244 5.6736-.967103 12.0785-1.401367 16.0119-1.085635 5.1667.41473 6.7925.202381 7.6733-1.002212.8383-1.146493 1.5976-1.275927 3.0385-.517957 3.8992 2.051242 10.2627 2.42964 15.6339.929647 2.9078-.81204 7.7619-1.767862 10.7869-2.124048 3.025-.356186 8.3403-1.348083 11.8119-2.204217 5.5881-1.378105 6.5055-1.386166 8-.07029 2.7518 2.422893 11.2886 3.799859 15.7953 2.547768 2.4186-.671938 6.9225-.807412 11.8928-.357722 4.4.398091 10.475.821017 13.5.939835 11.9711.470209 23.5757 1.910682 25 3.103219 3.4945 2.92596 22.8367 4.262851 26.7253 1.847197 1.6229-1.008169 4.1945-1.22344 9.5-.795249 4.0011.322917 8.6247.553424 10.2747.512237 1.65-.04119 14.25-.254982 28-.475102 32.6375-.522485 30.5-.378708 30.5-2.051515 0-1.996444 1.3079-2.621584 6.5036-3.108631 2.4671-.231265 7.1041-1.522572 10.3044-2.869571 4.9108-2.066925 7.0572-2.391776 13.7554-2.0818 4.3651.202009 9.4566.832442 11.3143 1.400963 1.8841.576562 4.0952.667396 5 .205404 2.5806-1.317539 10.9794-2.145649 11.5987-1.143612 1.1906 1.926506 7.0162 4.03823 11.1402 4.03823 2.3702 0 6.5837-.89646 9.3634-1.992133 6.597-2.60028 12.4491-2.359119 16.0382.66092 1.575 1.325257 4.0852 2.331213 5.8171 2.331213 1.6757 0 3.324.448716 3.6629.997146.3645.589663 2.118-.02331 4.2912-1.5 4.9543-3.366542 6.549-3.256408 6.0102.415069-.3755 2.558189-.07 2.98367 2.5115 3.5 3.8402.768038 14.0874.75582 16.1071-.0192.87-.333844 1.5818-1.472967 1.5818-2.531385 0-2.995637 2.9879-3.529191 4.9792-.889162 1.6558 2.195117 1.9773 2.240421 8.204 1.156091 9.4465-1.645034 12.7839-1.422239 21.9178 1.463165 6.8458 2.162579 10.7041 2.670317 23.3016 3.066395 8.3036.261072 18.3599.580745 22.3474.710386 5.4087.175847 7.25-.09498 7.25-1.066396 0-.716159.9-1.302106 2-1.302106s2 .626855 2 1.393011.7281 1.672411 1.618 2.013901c2.2524.864319 12.382-2.481297 12.382-4.089534 0-1.505661 2.5522-1.607442 9-.35892 3.6049.698042 4.6684.573197 5.3468-.627672.575-1.01802 1.6556-1.296011 3.3676-.866341 1.7119.429657 3.1555.05832 4.4986-1.157177 2.8944-2.619441 14.179-2.227109 17.1856.597495 1.4199 1.333927 2.9136 1.826343 4.3783 1.443328 1.3173-.344479 2.2231-.126378 2.2231.535278 0 .614147.9445 1.116631 2.0989 1.116631 1.1543 0 3.5893.707268 5.411 1.571706 3.0112 1.428942 3.5882 1.428942 6.3514 0C1852.533 93.707268 1854.958 93 1856.2503 93c1.2924 0 2.8102-.460529 3.3731-1.023397 1.477-1.477036 17.2105 1.948476 27.8766 6.069341 4.2977 1.660425 6.0158 2.026556 11.7684 2.507896 3.2788.27434 6.7802.93696 7.7808 1.47248 1.0006.53553 4.0989.97368 6.8851.97368 4.399 0 5.0657.26321 5.0657 2 0 1.1-.1125 1.93258-.25 1.85017-.1375-.0824.25 42.16887.25 42.16887z" fill="none" stroke="#000"/>
</svg>
