<svg xmlns="http://www.w3.org/2000/svg" width="1920" height="188">
  <path style="fill:white;stroke:none;" d="m 1917.6412,70.180925 c -1.0132,0.567005 -2.572,1.883254 -3.4639,2.924997 -1.8168,2.121838 -6.1649,2.573534 -6.2001,0.644078 -0.013,-0.6875 -0.7599,0.246038 -1.661,2.074529 -1.1035,2.239442 -2.1826,3.182165 -3.3062,2.888348 -0.9173,-0.2399 -2.5059,0.176562 -3.5301,0.925471 -2.4552,1.795294 -5.3842,1.718969 -10.1078,-0.263387 -2.1296,-0.893772 -6.3471,-1.744627 -9.3721,-1.89079 -3.025,-0.146163 -7.7409,-0.516022 -10.4799,-0.82191 -3.7057,-0.413864 -5.4203,-0.157526 -6.7015,1.00189 -1.4677,1.328292 -2.6625,1.394202 -8.102,0.446949 C 1851.2074,77.499995 1846.2355,77 1843.6681,77 1839.7748,77 1839,77.310387 1839,78.870039 c 0,1.363021 -1.2201,2.211638 -4.5,3.129961 -2.475,0.692957 -4.5,1.642866 -4.5,2.110909 0,0.468043 -1.2075,1.154052 -2.6833,1.524465 -1.4759,0.370412 -3.8384,1.276213 -5.25,2.012891 -1.4117,0.736677 -3.6088,1.342186 -4.8824,1.345574 -3.2189,0.0086 -6.1843,1.76981 -6.1843,3.673014 0,1.28269 -0.7785,1.492063 -3.9609,1.065219 -2.7134,-0.363948 -4.3267,-0.09047 -5.1224,0.868331 C 1801.2778,95.370181 1799.9102,96 1798.8776,96 1797.8449,96 1797,96.45 1797,97 c 0,0.55 -0.6136,1 -1.3636,1 -0.75,0 -2.4375,1.050505 -3.75,2.33446 -3.609,3.53048 -8.9246,5.87869 -10.4472,4.61508 -0.8784,-0.72901 -1.4578,-0.72843 -1.9092,0.002 -1.096,1.77346 -4.6826,1.18093 -5.2168,-0.86185 -0.4656,-1.78045 -0.6293,-1.79935 -2.4064,-0.27776 -1.0487,0.89796 -1.9068,2.20764 -1.9068,2.91041 0,1.18411 -3.0736,1.79798 -7.25,1.44799 -0.9625,-0.0807 -1.75,0.29804 -1.75,0.84156 0,0.54352 -0.631,0.98821 -1.4022,0.98821 -0.7712,0 -1.8728,1.35 -2.448,3 -0.5751,1.65 -1.6891,3 -2.4753,3 -0.7863,0 -1.9898,0.675 -2.6745,1.5 -1.6958,2.04326 -5.6141,1.89371 -6.5501,-0.25 -0.6202,-1.42054 -0.8766,-1.18522 -1.3617,1.25 -0.4633,2.32521 -1.2022,3.06992 -3.2853,3.31086 -1.4781,0.17097 -3.7751,-0.40174 -5.1043,-1.27269 -1.3292,-0.87095 -3.0711,-1.33246 -3.8708,-1.02559 -0.7997,0.30688 -2.2828,-0.35792 -3.2959,-1.47731 C 1726.3687,115.64489 1724,115.36513 1724,117.5 c 0,1.90065 -2.9087,1.88365 -5.4411,-0.0318 C 1715.9328,115.48193 1715,115.62132 1715,118 c 0,1.1 -0.5625,2.01001 -1.25,2.02224 -0.6875,0.0122 -2.375,0.90222 -3.75,1.97776 -2.6233,2.05199 -7,2.69286 -7,1.025 0,-0.55 -1.3077,-0.71346 -3,-0.375 -1.8703,0.37406 -3,0.18818 -3,-0.49362 0,-0.60148 -0.6807,-0.83239 -1.5127,-0.51312 -0.832,0.31927 -2.1905,0.018 -3.0188,-0.6694 -1.2216,-1.01386 -1.8478,-0.94057 -3.316,0.38813 -2.6042,2.3568 -9.7906,2.19038 -11.3223,-0.26221 -0.6526,-1.04512 -1.8102,-1.66096 -2.5722,-1.36854 -0.7621,0.29242 -2.0248,-0.381 -2.8061,-1.49651 -1.5331,-2.18872 -7.4519,-4.74086 -7.4519,-3.21316 0,0.50464 -1.6621,0.85504 -3.6936,0.77867 -2.0452,-0.0769 -3.8675,0.38296 -4.0833,1.03045 -0.5867,1.7602 -7.8903,1.47886 -8.5847,-0.33069 -0.3166,-0.825 -1.4898,-1.5 -2.607,-1.5 -1.1173,0 -2.0314,-0.63287 -2.0314,-1.40638 0,-0.91405 -0.7001,-1.22329 -2,-0.88337 -1.1182,0.29241 -2,0.0307 -2,-0.59362 0,-1.85874 -2.434,-1.25257 -3.8086,0.9485 -0.7993,1.27992 -2.1276,1.95532 -3.4935,1.77633 -1.212,-0.15883 -3.6241,0.29954 -5.3601,1.01861 -3.6973,1.53147 -6.3951,0.50836 -8.9528,-3.39525 -0.8883,-1.35565 -2.2207,-2.46482 -2.9611,-2.46482 -0.7403,0 -2.151,-0.82795 -3.1349,-1.8399 -2.5305,-2.60255 -5.289,-3.45201 -5.289,-1.62872 0,1.72859 -1.8189,1.86817 -5.6019,0.42987 -2.0168,-0.76678 -2.9287,-0.72074 -3.4828,0.17582 -0.4864,0.78694 -3.7183,1.2407 -9.1793,1.28876 -5.555,0.0489 -8.9894,0.53953 -10.0733,1.43908 -1.9027,1.57913 -9.8716,0.79836 -13.1627,-1.28965 -1.1,-0.69789 -3.9125,-1.11366 -6.25,-0.92394 -2.3918,0.19412 -4.25,-0.0915 -4.25,-0.65319 0,-0.54897 -0.45,-0.99813 -1,-0.99813 -0.55,0 -1,1.125 -1,2.5 0,1.45843 -0.5747,2.5 -1.3794,2.5 -0.7587,0 -3.2342,1.8 -5.5012,4 -2.2669,2.2 -4.748,4 -5.5136,4 -0.7655,0 -1.6508,0.675 -1.9674,1.5 -0.7655,1.99473 -3.3096,1.90994 -4.4617,-0.14871 -0.9741,-1.74058 -1.511,-1.71949 -14.6617,0.57576 -4.1323,0.72123 -6.4889,1.71263 -7.6128,3.20259 -1.684,2.23259 -3.9022,1.84113 -3.9022,-0.68866 0,-2.11236 -1.9231,-1.75757 -3.9339,0.72578 -1.2878,1.59034 -2.2616,1.9485 -3.6603,1.34631 -1.0482,-0.45124 -2.6933,-0.723 -3.6558,-0.6039 -0.9638,0.11926 -1.75,-0.43689 -1.75,-1.2379 0,-0.79995 -1.1409,-1.74081 -2.5354,-2.09079 -1.5337,-0.38493 -2.9192,-1.71178 -3.5068,-3.35841 -0.5343,-1.49714 -1.6873,-3.99073 -2.5621,-5.5413 -0.8748,-1.55058 -1.3315,-3.07827 -1.0149,-3.39486 0.3165,-0.31659 -1.4247,-2.13402 -3.8695,-4.03873 -2.4448,-1.90472 -4.7153,-4.31454 -5.0456,-5.355152 -0.5732,-1.806221 -1.1855,-2.034889 -6.1147,-2.283597 -1.182,-0.05964 -3.1342,-1.354922 -4.3383,-2.878411 -1.2041,-1.523488 -3.5794,-3.488853 -5.2785,-4.367476 -2.8354,-1.466215 -3.1864,-1.464573 -4.272,0.01998 C 1455.8117,91.272136 1454.7286,92 1454.0553,92 c -0.6734,0 -4.6468,-3.455973 -8.8298,-7.67994 -4.183,-4.223967 -7.7825,-7.148967 -7.9989,-6.5 -0.6699,2.009772 -2.4683,1.314928 -5.2639,-2.033864 -2.1848,-2.617013 -3.3234,-3.17068 -6.1313,-2.981579 -2.5809,0.173815 -4.0432,-0.40121 -5.8141,-2.286196 C 1418.716,69.133289 1416.8298,68 1415.8257,68 1414.8216,68 1414,67.325 1414,66.5 c 0,-1.79269 -1.1638,-1.936235 -2.7596,-0.340387 -0.8795,0.879484 -2.1305,0.517128 -5.1786,-1.5 -4.8653,-3.219742 -4.8805,-3.221158 -4.3995,-0.409613 0.7497,4.381084 -0.8155,5.138085 -6.9415,3.357216 C 1391.6801,66.723247 1388.0098,66 1386.5647,66 c -1.4451,0 -2.8865,-0.675 -3.2031,-1.5 -0.6619,-1.724958 -4.3616,-2.057121 -4.3616,-0.391592 0,0.670095 -0.9474,0.870631 -2.3957,0.507115 -1.5523,-0.389591 -2.5799,-0.121428 -2.9188,0.761658 C 1373.0659,66.991871 1363.3694,72 1360.8627,72 c -0.9596,0 -1.9775,-0.376758 -2.2621,-0.83724 -0.2846,-0.460482 -3.0744,-0.373779 -6.1995,0.192673 -5.5228,1.001045 -5.7423,0.954438 -7.8292,-1.66276 C 1343.391,68.211703 1341.6918,67 1340.7958,67 c -0.8959,0 -2.5523,-1.2375 -3.6807,-2.75 -1.5694,-2.103451 -2.0592,-2.343039 -2.0834,-1.019052 -0.042,2.305099 -4.9435,3.573964 -6.4373,1.666511 -0.6019,-0.768602 -2.6694,-1.478628 -4.5944,-1.577834 -1.925,-0.09921 -6.2,-0.329808 -9.5,-0.51245 -3.3,-0.182641 -6.6112,0.106541 -7.3582,0.642628 -0.9475,0.679983 -1.7064,0.498532 -2.5097,-0.600094 -1.3153,-1.798693 -8.4309,-2.953385 -8.9322,-1.449473 -0.2143,0.642869 -1.3699,0.59793 -3.2658,-0.126995 C 1286.9689,59.183474 1282,58.751331 1282,60.365793 c 0,0.801031 -1.4111,2.643762 -3.1357,4.094958 -3.4206,2.878238 -7.0136,2.798 -11.682,-0.260882 -2.025,-1.326818 -6.988,-2.074207 -22.9323,-3.453408 -2.5468,-0.220298 -3.25,0.101289 -3.25,1.486205 0,1.194285 -0.771,1.767334 -2.3779,1.767334 -1.3078,0 -3.9934,0.675 -5.9679,1.5 -1.9745,0.825 -4.8644,1.5 -6.4221,1.5 -1.5576,0 -3.2947,0.462636 -3.8602,1.028079 -0.7041,0.704106 -2.4037,0.412171 -5.3935,-0.926408 -3.9118,-1.751356 -4.4836,-1.793081 -5.5011,-0.401468 -0.9038,1.235999 -1.5653,1.323043 -3.2407,0.426409 C 1207.0788,66.506975 1205.302,66 1204.2882,66 c -1.0137,0 -2.9067,-0.744917 -4.2066,-1.655371 -1.7294,-1.211379 -4.1741,-1.596642 -9.1144,-1.436409 -6.4916,0.210542 -18.3463,-1.375822 -20.4531,-2.736959 -1.4677,-0.948264 -9.5141,-0.876051 -9.5141,0.08539 0,0.446731 -2.2313,0.516248 -4.9584,0.154482 -4.042,-0.536188 -5.6236,-0.26532 -8.5572,1.465557 -4.2953,2.534294 -5.2896,2.609591 -7.542,0.571147 -1.568,-1.419023 -1.9009,-1.316094 -3.88,1.19992 -2.0571,2.615275 -2.3238,2.684348 -5.3636,1.389446 -1.7593,-0.749454 -5.8262,-1.556401 -9.0376,-1.793216 -4.939,-0.364224 -6.1339,-0.113773 -7.754,1.625272 -1.0534,1.130716 -3.7743,2.556416 -6.0464,3.168223 -3.9693,1.068832 -4.2432,0.989592 -6.9959,-2.024269 -2.0486,-2.24294 -2.8649,-2.669036 -2.8649,-1.495472 0,1.315481 -0.616,1.505888 -3.1038,0.959464 -5.77,-1.267299 -13.6302,0.39236 -17.166,3.624528 -4.0174,3.672532 -9.5498,5.224033 -16.7665,4.702024 -5.535,-0.400363 -5.5567,-0.390829 -5.1665,2.268066 0.3508,2.389797 0,2.742928 -3.3048,3.363633 -2.0332,0.381433 -3.9031,0.487224 -4.1552,0.235091 -0.2521,-0.252132 -1.5044,0.587577 -2.7829,1.86602 -3.5943,3.594305 -9.4705,4.630722 -25.4491,4.48857 -8.0329,-0.07146 -16.4052,0.09209 -18.6052,0.363443 -2.2,0.271357 -4.7875,0.519937 -5.75,0.5524 C 994.7875,86.973439 994,87.675 994,88.5 c 0,0.825 -0.7875,1.502772 -1.75,1.506161 -0.9625,0.0034 -2.96863,0.641913 -4.45807,1.418944 C 984.66425,93.056797 973,93.41177 973,91.875261 c 0,-0.561232 -1.18569,-0.08776 -2.63486,1.052159 C 967.03748,95.54496 965,95.572523 965,93 c 0,-2.043681 -1.44487,-2.707244 -2.42869,-1.115388 -0.30069,0.486537 -2.56558,1.18736 -5.03308,1.557385 -2.99216,0.448701 -5.87351,1.831691 -8.65123,4.152412 -4.16716,3.481561 -6.4777,3.945681 -6.28383,1.262248 0.0568,-0.785447 -0.61825,-1.514325 -1.5,-1.61973 -0.88174,-0.105404 -3.34245,-0.48211 -5.46823,-0.837125 -2.12579,-0.355014 -4.15079,-0.242309 -4.5,0.250457 -0.34922,0.492765 -1.88515,1.691745 -3.41319,2.664399 C 924.81557,101.16456 923,100.84824 923,98.49201 c 0,-1.178512 -0.52121,-1.172183 -3.42622,0.04161 -1.88442,0.787361 -6.04692,1.72492 -9.25,2.08346 -3.20308,0.35854 -6.99638,1.32506 -8.42955,2.14781 -1.91707,1.10056 -3.09676,1.22115 -4.46351,0.45628 -1.46482,-0.81976 -2.46331,-0.53009 -4.72095,1.36959 C 891.135,105.91584 888.56569,107 887.0002,107 c -1.84364,0 -3.92774,1.08139 -5.91604,3.06968 -2.19966,2.19966 -3.63859,2.88913 -5.07692,2.43262 C 874.86426,112.13953 874,112.31903 874,112.91919 874,114.12839 867.63953,117 864.96121,117 c -0.987,0 -1.96608,-0.5146 -2.17573,-1.14356 -0.22696,-0.68087 -2.44497,0.33911 -5.48187,2.5209 -6.18653,4.44459 -17.02412,8.2783 -19.33042,6.83799 -1.08667,-0.67864 -2.13887,-0.56735 -3.40767,0.36042 -1.00956,0.73821 -3.91231,1.62349 -6.45055,1.96728 -6.91933,0.93721 -7.7157,1.28525 -8.90295,3.89099 -1.19914,2.63181 -4.76712,3.6131 -20.00186,5.50106 -5.77694,0.7159 -9.65342,1.82642 -12.78814,3.66349 -3.17045,1.85801 -5.32955,2.46992 -7.31432,2.07297 -3.15918,-0.63184 -5.24111,0.81723 -4.38384,3.05124 0.31217,0.81349 -0.0605,1.87676 -0.82814,2.36283 -1.83556,1.16227 -9.62064,1.16849 -10.3377,0.008 v 2.7e-4 c -0.30801,-0.49837 -1.41491,-0.68256 -2.4598,-0.40932 -1.04488,0.27325 -4.02663,-0.444 -6.62612,-1.59388 C 751.87262,144.94081 749.07548,144 748.25625,144 c -1.01192,0 -1.31669,-0.66089 -0.9505,-2.06117 0.36093,-1.38023 -0.0135,-2.23026 -1.13337,-2.573 -0.91981,-0.2815 -2.38764,-0.88768 -3.26186,-1.34705 -0.87421,-0.45938 -2.22421,-0.43342 -3,0.0577 -2.60212,1.64724 -11.463,1.06152 -14.02566,-0.92713 C 723.36394,135.19307 721,135.32377 721,137.4194 c 0,0.76873 -1.54542,1.31329 -4,1.40947 l -4,0.15673 v -6.52274 -6.52273 l -2.75,2.02209 c -3.51966,2.58803 -12.25,3.94785 -12.25,1.90804 0,-1.14474 -1.42026,-1.26699 -7.75,-0.6671 -4.2625,0.40397 -9.24021,1.02866 -11.06158,1.3882 -2.83401,0.55944 -3.39286,0.34287 -3.87524,-1.50177 -0.53183,-2.03372 -0.69942,-2.06654 -2.96667,-0.58097 -2.82945,1.85392 -4.34056,1.22422 -4.36182,-1.81764 -0.0204,-2.91813 -1.02469,-4.25018 -3.71734,-4.93054 -1.91798,-0.48462 -2.09416,-0.30535 -1.25,1.27197 1.69464,3.16647 1.10657,3.86656 -3.10669,3.69855 -2.94338,-0.11737 -4.35845,0.31782 -5.04969,1.55298 C 653.82955,130.127 651,130.65177 651,129 c 0,-0.55 -1.35,-1 -3,-1 -2.36655,0 -3,0.43681 -3,2.06872 0,1.96896 -0.37376,2.03774 -7.75,1.42612 -7.65603,-0.63481 -7.78307,-0.60671 -10.477,2.3171 -3.60952,3.91753 -7.71705,4.9662 -9.75185,2.48969 -0.83663,-1.01824 -2.30865,-1.69467 -3.27115,-1.50317 -1.21592,0.24193 -1.75,-0.28457 -1.75,-1.72514 0,-2.70001 -1.60867,-2.67777 -2.3173,0.032 -0.95645,3.65746 -3.16458,1.51488 -3.48538,-3.38193 -0.22152,-3.38133 -0.66366,-4.48171 -1.64885,-4.10365 -0.74039,0.28411 -1.64324,0.0359 -2.00634,-0.55161 C 602.17904,124.48068 600.10852,124 597.94098,124 595.77344,124 594,123.55 594,123 c 0,-0.55 -0.65264,-1 -1.45031,-1 -0.79767,0 -1.81017,-0.61605 -2.25,-1.36901 -1.09898,-1.88136 -4.97634,-2.9632 -5.80644,-1.62007 -0.45053,0.72897 -2.97066,0.86607 -7.57687,0.41218 -4.89934,-0.48277 -7.33543,-0.32021 -8.39636,0.56028 -2.45065,2.03386 -4.80784,0.43102 -4.31404,-2.93346 0.40754,-2.77675 0.27683,-2.89648 -2.54575,-2.33197 -2.59417,0.51884 -2.90962,0.34373 -2.4623,-1.36684 0.46483,-1.77751 0.005,-1.9541 -4.89601,-1.87884 -3.1277,0.048 -5.73075,0.60356 -6.17177,1.31714 C 547.14749,114.37939 541,113.2459 541,111.47474 c 0,-0.71546 -2.30458,-1.8155 -5.25,-2.50596 -2.8875,-0.67688 -5.78112,-1.65082 -6.43026,-2.1643 -0.79529,-0.62909 -1.52012,-0.29858 -2.22222,1.0133 -1.49109,2.78613 -3.88436,3.40767 -7.95208,2.06521 -2.65489,-0.8762 -3.64542,-0.88305 -3.93071,-0.0272 -0.59619,1.78859 -5.15366,1.34506 -8.69997,-0.84668 -3.21638,-1.98783 -3.22405,-1.98783 -5.02302,0 -2.05787,2.27393 -5.49174,2.66395 -5.49174,0.62377 0,-0.75192 -1.81444,-2.56786 -4.03208,-4.03542 -2.67919,-1.77301 -4.22674,-3.64157 -4.61222,-5.56896 -0.70375,-3.518777 -2.95652,-4.662997 -3.68629,-1.87234 -0.89488,3.42202 -4.17135,1.88866 -4.15884,-1.946291 0.008,-2.520157 -0.32508,-3.091785 -1.5,-2.572607 -0.83081,0.367122 -2.88303,0.862644 -4.56049,1.101159 -1.89864,0.269966 -3.40856,1.250511 -4,2.597617 -0.75567,1.721152 -1.8709,2.192186 -5.45008,2.301932 -2.475,0.07589 -5.30691,0.46898 -6.29313,0.87354 -0.98622,0.40456 -2.05482,0.47386 -2.37468,0.15401 -0.31985,-0.31986 -2.65936,0.52455 -5.19891,1.87646 -2.53955,1.3519 -5.61761,2.45801 -6.84014,2.45801 -1.22252,0 -2.68486,0.86342 -3.24964,1.91872 -1.13859,2.12747 -7.2541,3.94949 -7.79633,2.32279 -0.21892,-0.65676 -1.73921,-0.69368 -4.35579,-0.10577 C 423.5849,110.10334 422,109.6762 422,107.54797 c 0,-0.7337 -0.71084,-1.60677 -1.57964,-1.94016 -1.17557,-0.45111 -1.41214,-1.36873 -0.92485,-3.58736 l 0.65478,-2.981191 -3.54303,1.480371 c -4.46878,1.86718 -7.68732,1.87958 -10.16613,0.0392 C 405.37351,99.766141 403.6,99.332635 402.5,99.595453 c -1.1,0.262818 -4.09952,-0.158172 -6.6656,-0.935534 -4.49598,-1.361999 -4.68636,-1.336064 -5.23635,0.713348 -0.31391,1.169703 -0.57689,4.072233 -0.5844,6.450053 -0.0113,3.57402 -0.31696,4.2655 -1.76365,3.98967 -1.4237,-0.27145 -1.80513,-1.59033 -2.04569,-7.07333 C 385.9566,97.093662 385.62394,96 384.15431,96 c -0.96487,0 -2.3036,-0.549285 -2.97494,-1.220634 -1.79223,-1.792225 -7.89623,-1.95959 -8.55815,-0.234655 -0.38598,1.005845 -1.44942,1.239649 -3.64298,0.800936 -1.85387,-0.370772 -4.11815,-0.07354 -5.63858,0.740164 -2.24464,1.201293 -2.69452,1.149367 -3.8608,-0.445611 -1.25637,-1.718179 -1.37548,-1.701881 -2.46695,0.337555 -0.6312,1.179402 -1.8982,1.99821 -2.8179,1.821092 -0.91907,-0.176998 -2.46371,0.470854 -3.43253,1.439669 -2.82495,2.824954 -10.68754,1.879714 -12.92269,-1.553569 -0.37891,-0.582024 -2.13708,0.549242 -4.11808,2.649703 -1.90127,2.01594 -4.1491,3.66535 -4.99517,3.66535 -1.01531,0 -1.37052,0.64159 -1.0448,1.88714 0.71494,2.73395 -1.37847,3.54093 -4.2703,1.64614 -1.45087,-0.95065 -3.34307,-1.37205 -4.50499,-1.00327 -1.11755,0.3547 -2.99241,-0.0122 -4.24018,-0.82977 -2.0079,-1.31562 -2.47474,-1.27294 -4.56182,0.41708 -1.27876,1.03547 -2.91267,1.88268 -3.6309,1.88268 -0.71824,0 -1.45855,0.45801 -1.64515,1.0178 -0.1866,0.55979 -3.47565,1.22463 -7.30902,1.47743 -6.58863,0.43449 -7.13512,0.30353 -9.99406,-2.39504 -1.66338,-1.57006 -4.35744,-3.27928 -5.98682,-3.79826 -2.64024,-0.84095 -3.33447,-0.57162 -6.38194,2.47585 -2.85271,2.8527 -3.91838,3.31966 -6.42979,2.81737 -1.65569,-0.33113 -3.50881,-1.26862 -4.11806,-2.08329 -0.93177,-1.24596 -2.19065,-1.31072 -7.926,-0.4077 -7.28619,1.14719 -22.87954,-0.23035 -23.50202,-2.07621 -0.17617,-0.5224 -1.63867,-0.68615 -3.25,-0.36389 C 227.51351,105.1473 227,104.91739 227,103.3524 c 0,-2.48264 -5.13211,-5.172742 -11.49029,-6.022879 -2.74466,-0.366981 -5.61064,-1.287594 -6.36885,-2.045806 -1.17142,-1.171422 -1.66184,-1.122208 -3.26378,0.327523 -1.53165,1.386124 -2.34661,1.495862 -4.34543,0.585136 -1.54312,-0.703091 -2.68193,-0.762237 -3.05496,-0.158664 -1.17624,1.903197 -2.35641,0.901818 -2.69619,-2.28771 l -0.34621,-3.25 -1.41692,2.836166 -1.41692,2.836167 -11.15462,-0.696967 c -10.98391,-0.686301 -11.16358,-0.662677 -11.74057,1.543714 -0.41079,1.57087 -1.07663,2.05239 -2.22739,1.610801 C 166.57507,98.283446 164.52323,98 162.91821,98 160.34242,98 160,97.647982 160,95 c 0,-3.507756 -2.34424,-4.093816 -4,-1 -1.24593,2.328036 -5,2.703443 -5,0.5 0,-1.698169 -1.56593,-2.011355 -2.5,-0.5 -0.33992,0.55 -1.49148,1 -2.55902,1 C 144.87344,95 144,94.55 144,94 c 0,-0.55 -0.72378,-1 -1.60841,-1 -1.16911,0 -1.45373,-0.614534 -1.04209,-2.25 0.54271,-2.156189 0.33876,-2.235718 -4.89159,-1.90745 C 132.87134,89.06765 131,88.798436 131,88.057366 c 0,-1.39202 -2.55558,-0.111185 -5.70819,2.860895 -2.90974,2.743119 -4.88773,2.628081 -6.87157,-0.399645 -2.04654,-3.123411 -7.83835,-4.898961 -10.51915,-3.224772 -1.47589,0.92171 -2.34537,0.90979 -3.88752,-0.0533 -2.57997,-1.611216 -2.68939,-1.588205 -3.28538,0.69087 -0.32303,1.23525 -1.970846,2.326107 -4.571633,3.026427 -2.236604,0.602254 -4.666704,1.645617 -5.400223,2.318582 C 88.147186,95.670183 84.98319,97 81.896937,97 c -2.63859,0 -3.048002,-0.314324 -2.606827,-2.00138 0.287855,-1.100759 0.153101,-1.77254 -0.299453,-1.492846 -0.452553,0.279694 -1.947302,0.08101 -3.321663,-0.441522 -1.902267,-0.723241 -2.631025,-0.60558 -3.052531,0.492846 -0.806472,2.101632 -4.373573,1.765263 -5.600975,-0.528159 -1.121352,-2.095264 -3.557851,-2.049064 -10.967423,0.207962 -2.188728,0.666708 -3.56994,0.697473 -3.774408,0.08407 C 52.096297,92.78889 50.543699,92.560125 48.82344,92.812606 46.031332,93.2224 45.755632,93.042467 46.254229,91.135831 46.823011,88.960802 45.622617,88.183568 44.5,90 c -0.339919,0.55 -1.543936,1 -2.675594,1 -1.655506,0 -1.964176,-0.488509 -1.579655,-2.5 0.397835,-2.081141 0.09217,-2.5 -1.824406,-2.5 -1.266271,0 -2.597581,0.477757 -2.958467,1.061683 -1.165982,1.886598 -5.820043,3.110286 -11.883307,3.124467 -3.823421,0.0089 -6.435156,0.527578 -7.371377,1.463799 -2.012141,2.012141 -4.643812,1.273872 -5.026745,-1.410165 C 10.877148,88.113898 9,86.976353 9,88.918441 9,89.805274 2.9178343,94 1.631966,94 L 1.5135936,83.714536 c 0,-4.956558 -0.4298533,-11.530124 3.7364064,-15.653412 4.3860561,-4.340818 6.469399,-4.955933 7.346339,-2.670665 0.741147,1.9314 12.409525,3.092739 16.734044,1.66552 1.836849,-0.606215 4.623143,-2.441808 6.191763,-4.079094 C 38.610639,59.753193 41,59.108997 41,61.5 c 0,0.825 0.72746,1.5 1.616577,1.5 1.143125,0 1.489037,0.667183 1.181099,2.278057 -0.393137,2.056564 -0.112785,2.240384 2.883423,1.890594 C 49.311192,66.861602 50,67.140618 50,68.513039 c 0,1.42604 0.26487,1.512028 1.5,0.486961 1.171538,-0.97229 1.817583,-0.981319 2.950317,-0.04123 1.118837,0.928552 2.72506,0.939021 7.02765,0.04581 5.314885,-1.103366 5.668578,-1.048367 7.516414,1.168788 1.734871,2.081614 1.942584,2.130064 1.97235,0.460061 0.03384,-1.898374 2.019209,-1.947361 6.283269,-0.15503 1.264196,0.531385 1.75,0.269126 1.75,-0.944728 0,-1.067265 0.638473,-1.552331 1.75,-1.329526 1.165291,0.233583 1.736829,1.260441 1.710579,3.073324 -0.02168,1.49739 0.0085,2.722531 0.06698,2.722531 0.05852,0 2.746119,-1.35 5.972437,-3 3.226318,-1.65 6.469813,-3 7.207767,-3 0.737954,0 1.769459,-1.125 2.292233,-2.5 1.034576,-2.721141 4.678094,-3.421908 6.793414,-1.306593 0.92454,0.924544 1.82677,0.586607 4.00472,-1.5 C 112.40852,59.234429 115,59.153613 115,62.5 c 0,1.499059 0.57151,2.5 1.42742,2.5 0.78508,0 2.41588,1.2375 3.624,2.75 1.96836,2.464278 2.12459,2.515716 1.50363,0.495074 -0.50762,-1.651834 -0.2225,-2.435454 1.06603,-2.92991 1.01676,-0.390167 1.92572,-0.174758 2.15414,0.510496 0.26691,0.800715 1.22269,0.534544 2.94483,-0.82009 C 130.72698,62.64032 134,62.376824 134,64.5 c 0,1.731022 6.4725,2.162522 7.5,0.5 1.10202,-1.783109 3.5,-1.057538 3.5,1.059017 0,1.175641 0.44782,1.782248 1.0438,1.41391 0.5741,-0.354809 1.60836,-0.176574 2.29836,0.396078 1.27938,1.06179 8.2624,1.90343 8.98559,1.083002 0.21914,-0.248604 0.83484,-1.802007 1.36821,-3.452007 0.53338,-1.65 1.71998,-3.145496 2.63691,-3.323324 C 162.75029,61.90178 163,62.820451 163,68.310099 c 0,5.966317 0.17687,6.490557 2.32855,6.901878 2.01056,0.384342 2.26491,0.112158 1.86246,-1.993087 -0.4243,-2.219611 -0.2072,-2.38824 2.42145,-1.880793 1.58815,0.306584 6.97108,0.847456 11.96207,1.201938 8.97338,0.637329 9.09346,0.615618 10.77305,-1.947761 2.03259,-3.102118 3.96951,-3.242151 8.82787,-0.638224 3.07236,1.646687 3.7336,1.725335 4.20381,0.5 C 206.12132,68.520275 209,68.58478 209,70.53518 c 0,1.207913 0.41234,1.314503 1.93426,0.5 2.85404,-1.527438 3.34821,-1.293144 2.84331,1.348066 -0.42695,2.233439 -0.21992,2.35164 3.29359,1.880379 2.5,-0.33532 4.50674,0.02774 6.02285,1.089663 1.33705,0.93651 3.22777,1.353066 4.58982,1.011213 C 229.66199,75.868019 230,76.163842 230,78.391592 c 0,2.838749 1.43855,3.513918 2.36163,1.108408 0.97032,-2.528619 3.48126,-1.710514 3.82195,1.245252 0.35818,3.107521 2.6568,3.934537 11.49687,4.136433 4.59628,0.104973 5.21648,-0.126572 5.5,-2.053357 0.43704,-2.970119 2.8189,-3.546813 3.52333,-0.853066 0.4221,1.614094 1.10774,2.045784 2.62082,1.650103 3.72598,-0.974365 10.67283,0.492938 10.70246,2.260559 0.0182,1.086324 1.18443,0.36892 3.56678,-2.19411 l 3.53972,-3.808185 4.81561,1.599489 c 2.64859,0.879719 5.55485,2.416337 6.45836,3.414707 1.05565,1.166482 2.52724,1.646139 4.11761,1.34212 1.46328,-0.279724 2.47486,-0.0068 2.47486,0.667635 0,0.709831 1.51042,1.037174 3.99853,0.866578 2.38493,-0.163522 3.99913,-0.778596 4,-1.524158 8.1e-4,-0.6875 0.94207,-1.25 2.0917,-1.25 1.14963,0 3.27483,-1.35 4.72268,-3 C 312.59563,78.828762 315,78.076709 315,80.377555 c 0,2.544989 2.44484,3.699597 4.61505,2.179521 1.08831,-0.762284 3.44385,-1.284539 5.23453,-1.160567 3.33208,0.230686 6.56643,-2.105303 9.89488,-7.146509 C 336.37674,71.777785 339,71.219919 339,73.345012 c 0,2.357942 3.66541,4.822956 6.66157,4.479944 2.25416,-0.258066 2.90356,-0.891025 3.15485,-3.074956 0.33251,-2.889787 3.36187,-3.888577 4.78924,-1.579031 0.47954,0.775902 0.99466,0.438516 1.5268,-1 0.92301,-2.495148 3.08617,-2.80948 5.14764,-0.748013 1.23061,1.230608 1.6436,0.960258 3.05525,-2 C 364.23311,67.54033 365.64992,66 366.48382,66 c 1.76316,0 1.87966,0.913787 0.55924,4.386748 -0.83955,2.208181 -0.73296,2.430848 0.86889,1.815099 1.0042,-0.386016 3.04983,-2.164347 4.54583,-3.951847 C 375.23296,64.934073 378,63.960506 378,66.3 c 0,0.715 -0.54,1.84 -1.2,2.5 -0.93333,0.933333 -0.64247,1.2 1.30887,1.2 1.37988,0 3.34685,0.612744 4.37104,1.361652 1.02419,0.748909 2.6852,1.146425 3.69113,0.883369 1.44821,-0.378715 1.84305,0.118492 1.89664,2.388348 0.0658,2.785826 0.0983,2.803207 1.15281,0.616631 C 390.30482,73.001674 393,72.110294 393,74 c 0,0.55 1.54844,1 3.44098,1 1.89254,0 3.71341,0.440785 4.04636,0.979521 0.38521,0.623282 1.26878,0.565221 2.42948,-0.159644 1.47801,-0.923037 2.2639,-0.729425 4.1422,1.020478 2.77483,2.585154 3.69478,2.64208 8.91871,0.551877 5.22785,-2.091768 7.3805,-1.286393 6.81735,2.550585 -0.33191,2.261459 0.0104,3.03455 1.51808,3.428824 1.26816,0.331634 1.73801,1.052625 1.34811,2.068704 -1.02706,2.676468 0.2116,1.706183 1.83873,-1.440345 1.61964,-3.132035 4.5,-4.092156 4.5,-1.5 0,0.825 0.81,1.5 1.8,1.5 0.99,0 2.34,0.54 3,1.2 0.93333,0.933333 1.2,0.711111 1.2,-1 0,-1.852467 0.55936,-2.2 3.54096,-2.2 1.98048,0 6.06109,-1.311582 9.25948,-2.976162 4.47222,-2.327539 6.51114,-2.847535 9.35545,-2.385966 3.12589,0.507262 3.73395,0.284571 4.32726,-1.584796 0.90292,-2.844846 4.95269,-4.766179 6.8053,-3.228643 1.01682,0.843885 2.25073,0.634475 5.02599,-0.852978 C 480.38916,68.787538 483,68.43606 483,70.071429 c 0,1.994033 2.72387,3.813541 4.86917,3.252534 1.86968,-0.488934 2.13083,-0.13535 2.13083,2.885092 0,2.313604 0.73776,4.094725 2.25,5.432013 3.3921,2.999666 7.75,5.523859 7.75,4.488974 0,-2.024582 3.51646,-2.062783 7.3214,-0.07954 3.35521,1.748832 4.40418,1.899132 6.27324,0.898845 1.69636,-0.907867 3.03291,-0.926238 5.47407,-0.07524 C 523.5316,88.42988 523.9203,88.339831 525,85.5 c 1.01933,-2.681042 3.80844,-3.291558 5.82496,-1.275041 0.96661,0.966613 1.63864,0.966613 3.18643,0 C 536.8132,82.475201 538,82.705812 538,85 c 0,1.1 0.41968,2 0.93261,2 0.51294,0 1.21826,-0.9 1.56739,-2 0.9564,-3.013357 3.48613,-2.483231 3.57895,0.75 0.0434,1.5125 0.30592,2.1875 0.58333,1.5 0.65737,-1.629141 3.26166,-1.61179 3.89011,0.02592 0.30659,0.79896 2.21753,1.24344 5.11201,1.189037 3.76143,-0.0707 5.02178,-0.587742 6.76657,-2.775918 3.06138,-3.83934 5.54117,-3.567868 5.38487,0.589505 -0.13179,3.505781 2.2245,9.100428 2.93505,6.968795 C 569.42917,91.212491 573,91.749588 573,93.886456 c 0,2.66498 8.81432,4.087961 10.55725,1.70436 C 584.84713,93.826808 588,93.421045 588,95.019052 c 0,0.587645 1.05835,0.753422 2.5,0.391592 2.03993,-0.511989 2.5,-0.260905 2.5,1.364371 0,2.180712 3.78394,3.485025 6.19537,2.135528 0.76232,-0.426616 3.61772,-0.693513 6.34533,-0.593104 4.61405,0.169852 4.98133,0.374008 5.27572,2.932561 0.22602,1.96427 -0.13113,2.75 -1.25,2.75 -0.86153,0 -1.56642,0.675 -1.56642,1.5 0,0.825 0.8449,1.5 1.87756,1.5 1.03265,0 2.43775,0.675 3.12244,1.5 0.68469,0.825 2.08122,1.5 3.10339,1.5 1.14842,0 2.09824,0.95519 2.48597,2.5 0.3451,1.375 1.10972,2.5 1.69916,2.5 1.23624,0 9.71148,-8.84819 9.71148,-10.13884 0,-1.71115 3.19934,-0.81487 3.6822,1.03156 0.29453,1.12631 1.72447,2.13861 3.53138,2.5 4.31786,0.86357 4.78642,0.78217 4.78642,-0.83145 0,-1.52437 8.01652,-3.28713 9.83574,-2.16279 0.55917,0.34559 0.76632,-0.20421 0.48388,-1.28424 -0.27162,-1.03869 -0.005,-2.19087 0.59326,-2.5604 C 653.5108,101.18431 654,99.959291 654,98.831577 c 0,-1.740341 0.49145,-1.981281 3.25,-1.593366 1.7875,0.251362 4.0375,0.79874 5,1.216395 1.32035,0.572936 1.75,0.291181 1.75,-1.147617 C 664,95.362818 665.75552,93 667.2,93 c 0.44,0 0.8,1.125 0.8,2.5 0,1.375 0.42284,2.5 0.93963,2.5 0.5168,0 1.0793,1.6875 1.25,3.75 0.22749,2.74862 0.71092,3.64674 1.81037,3.36331 5.72633,-1.4762 6,-1.4171 6,1.29579 0,2.61581 0.0301,2.62668 3.00966,1.08591 1.65531,-0.856 4.53922,-1.45335 6.40868,-1.32745 1.86945,0.1259 4.00261,-0.22868 4.74034,-0.78796 2.47626,-1.87728 6.66378,-1.51433 7.34651,0.63675 0.34627,1.09101 1.28871,1.98365 2.09432,1.98365 2.96447,0 8.04008,-2.80101 9.71914,-5.36357 0.9501,-1.45004 2.44393,-2.63643 3.31963,-2.63643 1.34786,0 1.48599,0.8498 0.9002,5.53831 l -0.69197,5.53832 2.57675,-0.64672 c 2.07108,-0.51981 2.58298,-0.28203 2.60854,1.21168 0.0301,1.7571 0.10423,1.76301 1.36025,0.10841 1.82794,-2.40802 3.48976,-2.19107 4.54858,0.59383 0.49011,1.28911 2.28719,2.92211 3.99351,3.62889 2.63406,1.09106 3.76779,1.03093 7.51036,-0.39837 3.26448,-1.24672 4.88109,-1.40997 6.23174,-0.62932 1.00307,0.57976 3.10481,1.50972 4.67053,2.06658 1.56572,0.55686 3.06328,1.84043 3.32791,2.85237 0.66513,2.54344 6.64957,5.22117 10.1183,4.52742 1.84293,-0.36858 3.2452,-0.0503 4.0498,0.91916 1.79405,2.1617 4.87715,0.93161 6.0423,-2.41074 0.91989,-2.6388 1.42922,-2.89982 5.65853,-2.89982 2.92532,0 5.63131,-0.69254 7.30202,-1.8688 3.59763,-2.53291 4.90377,-2.86319 18.15437,-4.5906 10.82116,-1.41071 11.6487,-1.68076 14.01906,-4.57482 2.06228,-2.51791 3.55982,-3.21685 8.25863,-3.85449 3.74439,-0.50813 6.55684,-1.54666 8.09062,-2.98758 2.0247,-1.9021 2.70694,-2.04655 4.91485,-1.04056 4.08908,1.86312 9.14698,0.25226 17.88057,-5.694635 7.553,-5.143015 11.80417,-6.353199 10.51484,-2.993271 -1.00709,2.624433 3.5256,0.412077 5.20491,-2.540459 1.79149,-3.149763 5.09728,-3.85892 5.15005,-1.104785 0.024,1.253389 0.89416,0.696691 3.0663,-1.96174 2.57784,-3.154952 3.46684,-3.624926 5.92641,-3.133013 2.33447,0.466895 3.49596,-0.0236 6.01062,-2.53826 3.59556,-3.595565 3.73611,-3.632422 6.00869,-1.575767 1.54731,1.400302 1.97916,1.30887 4.72309,-1 C 905.86482,75.935958 909,75.183324 909,77.045313 c 0,1.539319 6.79047,0.100559 11.34126,-2.402979 3.82397,-2.103684 3.84789,-2.10426 5.31183,-0.127767 1.43398,1.93604 1.50521,1.938698 2.86301,0.106843 0.8732,-1.178065 2.13741,-1.683776 3.39022,-1.356158 1.09878,0.287337 2.16302,0.02671 2.36498,-0.579161 C 934.72199,71.334015 942,70.741402 942,72.05678 942,72.575551 942.675,73 943.5,73 c 0.87953,0 1.51307,0.930712 1.5316,2.25 0.0312,2.225071 0.0574,2.22076 2.3566,-0.389048 1.27875,-1.451477 3.85203,-2.947572 5.7184,-3.324657 C 959.20849,70.303458 960,69.88968 960,67.932612 c 0,-2.276865 2.52903,-2.602329 3.36163,-0.432612 0.31658,0.825 1.26472,1.5 2.10699,1.5 0.84226,0 1.55498,0.7875 1.58383,1.75 0.044,1.46914 0.30435,1.388895 1.62197,-0.5 1.66549,-2.387569 4.75233,-2.98656 5.89156,-1.143237 0.47942,0.775716 0.92807,0.711888 1.49992,-0.213394 0.66443,-1.075072 1.45589,-1.014969 4.26321,0.323749 3.27826,1.563294 3.424,1.554774 2.97198,-0.173747 -0.63492,-2.427925 1.38805,-3.544431 3.40534,-1.879461 1.27121,1.049197 1.70915,1.067682 2.03952,0.08609 0.2314,-0.6875 1.05822,-1.25 1.83738,-1.25 C 991.3625,66 992,65.405546 992,64.678991 c 0,-0.931365 1.99097,-1.419095 6.75,-1.65355 10.1509,-0.500089 12.0927,-0.460596 20.3165,0.413203 10.2378,1.0878 21.4036,-0.763855 24.454,-4.055282 1.2149,-1.310849 3.0572,-2.397674 4.0942,-2.415165 2.8151,-0.04749 4.8853,-2.152801 4.8853,-4.968197 0,-1.955678 0.4355,-2.420086 2,-2.132967 11.022,2.022726 17.9679,0.896197 21.4034,-3.471369 1.4096,-1.79203 3.5485,-2.611157 9.2161,-3.529493 4.0593,-0.657731 7.7404,-1.796692 8.1802,-2.531023 1.3545,-2.261427 5.1835,-1.484057 8.2003,1.664852 3.2727,3.41592 6.0885,3.871862 6.9597,1.126916 0.4989,-1.571816 1.9171,-1.954197 8.8174,-2.377396 5.1303,-0.314644 9.58,-0.04863 11.8312,0.707313 3.3051,1.10978 3.7972,1.015418 5.855,-1.122604 2.5664,-2.666429 5.2401,-2.998944 7.006,-0.871265 1.0604,1.277804 1.5381,1.250683 3.7739,-0.214286 1.5896,-1.041534 4.587,-1.677249 7.9083,-1.677249 3.6914,0 5.3485,-0.398355 5.3485,-1.285715 0,-1.554614 2.6176,-1.713542 3.5436,-0.215155 0.4029,0.651943 2.1549,0.818284 4.4803,0.425395 2.805,-0.473886 4.5378,-0.174032 6.5272,1.129476 2.0973,1.374201 5.4325,1.871763 14.7805,2.205057 8.4067,0.29973 12.4883,0.846521 13.4426,1.800863 0.7909,0.790854 2.3399,1.127145 3.6626,0.795158 1.6105,-0.404215 2.4893,-0.06146 2.9552,1.152598 0.6202,1.616235 0.7427,1.618992 1.8953,0.04267 1.0569,-1.445424 1.7289,-1.517766 4.7225,-0.508404 1.9196,0.647248 4.0527,1.616622 4.7402,2.154166 0.8952,0.699909 1.25,0.485193 1.25,-0.756383 0,-1.439083 0.5935,-1.62239 3.4923,-1.07858 4.7377,0.888794 13.3171,-2.135623 13.717,-4.835524 0.4435,-2.994274 5.2169,-3.854179 9.1022,-1.639747 1.9068,1.086758 6.4043,2.08683 11.1885,2.487892 4.4,0.368854 8.9552,1.292429 10.1227,2.052387 1.1675,0.759958 3.08,1.13141 4.25,0.825449 1.3461,-0.352009 2.1273,-0.08932 2.1273,0.715325 0,0.849373 0.6641,0.67061 2,-0.538356 1.1,-0.995486 2,-2.633068 2,-3.639071 0,-1.691637 0.9601,-1.807561 12.7759,-1.542533 7.0267,0.15761 13.4197,0.684471 14.2066,1.170802 1.9915,1.230791 25.1422,2.4726 26.0175,1.395583 0.275,-0.33837 1.4875,-0.923248 2.6944,-1.299729 1.6818,-0.524628 2.5845,-0.08896 3.865,1.865219 0.9188,1.402351 2.2539,2.549729 2.9667,2.549729 0.7129,0 2.4321,1.35 3.8204,3 2.5867,3.074116 8.0726,4.242813 8.8578,1.887056 0.2071,-0.621118 2.8946,-1.173511 6.0816,-1.25 3.1408,-0.07538 5.7113,-0.474556 5.7123,-0.887056 10e-4,-0.4125 1.0546,-0.75 2.3413,-0.75 2.3575,0 5.2527,-4.081192 4.7894,-6.751327 -0.1195,-0.688229 0.9805,-1.797047 2.4444,-2.464039 2.3488,-1.070179 2.8724,-0.952491 4.4545,1.001327 0.986,1.217721 2.2576,2.214039 2.8258,2.214039 0.5681,0 1.621,0.792987 2.3397,1.762193 1.3424,1.810314 10.6128,4.764994 11.6612,3.716652 0.322,-0.321992 0.5989,-1.573955 0.6155,-2.782142 0.042,-3.035238 3.7021,-3.38274 8.1277,-0.771565 4.2894,2.530826 4.3349,2.53312 3.7216,0.187721 -0.8301,-3.17406 1.7879,-3.685795 3.9153,-0.765332 1.0627,1.45886 2.5163,2.652473 3.2301,2.652473 0.7139,0 2.4992,1.575 3.9675,3.5 2.2565,2.958486 3.2806,3.5 6.6187,3.5 2.6158,0 4.6244,0.675258 5.9491,2 1.1,1.1 2.8544,2 3.8987,2 1.0443,0 5.2498,3.129524 9.3455,6.954497 5.5059,5.141938 7.7393,6.661965 8.5692,5.832097 1.6313,-1.631299 8.1896,0.552409 11.7848,3.923993 1.596,1.496688 3.6494,2.602555 4.5632,2.457482 0.9138,-0.145073 1.9528,0.207764 2.309,0.784081 0.3562,0.576318 1.5211,1.04785 2.5886,1.04785 1.0676,0 1.941,0.637722 1.941,1.417161 0,0.779439 2.5462,3.650618 5.6583,6.380398 3.1121,2.729781 5.7297,5.804558 5.8169,6.832839 0.3854,4.542434 2.7261,9.369602 4.5433,9.369602 1.0249,0 2.1416,0.45 2.4815,0.999999 1.0104,1.63492 6.22,1.17211 6.9052,-0.613453 0.6031,-1.571691 1.8336,-1.54039 5.9611,0.151631 1.6752,0.686702 1.7425,0.533662 0.6574,-1.493906 -1.8984,-3.547202 0.1925,-4.738565 3.8036,-2.167226 3.4852,2.481672 7.4089,2.748149 9.1727,0.622955 1.2914,-1.555997 4,-2.063867 4,-0.75 0,0.4125 2.25,0.75 5,0.75 2.75,0 5,-0.389984 5,-0.866631 0,-0.476648 0.9147,-0.62743 2.0327,-0.335072 1.4144,0.369875 2.514,-0.202992 3.615,-1.883369 C 1543.518,92.086718 1544.8533,91 1545.615,91 c 0.7618,0 1.385,-0.675 1.385,-1.5 0,-0.825 0.45,-1.5 1,-1.5 0.55,0 1,-0.659167 1,-1.464816 0,-0.805649 0.8704,-1.930649 1.9343,-2.5 2.4467,-1.309447 6.0657,-1.343229 6.0657,-0.05662 0,0.608867 0.8977,0.569526 2.3763,-0.104133 1.854,-0.844754 2.9078,-0.734388 4.7951,0.502197 3.1071,2.035854 12.5925,2.680997 13.2748,0.902878 0.6259,-1.630991 4.3272,-1.633814 7.5538,-0.0058 1.8524,0.934664 3.5362,0.997828 6.5,0.243839 3.6086,-0.918015 3.9683,-1.293854 3.6765,-3.841098 -0.2934,-2.560798 -0.064,-2.793415 2.4604,-2.5 1.9771,0.229744 2.984,1.048145 3.4739,2.823516 0.494,1.790206 0.7181,1.970046 0.7895,0.633423 0.082,-1.525078 0.6028,-1.740718 2.8497,-1.178654 1.5125,0.378357 4.1716,0.92528 5.9092,1.215383 1.9811,0.330765 3.3446,1.236438 3.6564,2.428654 0.2912,1.113475 1.3749,1.901194 2.6155,1.901194 1.288,0 2.4599,0.898126 2.9895,2.291097 1.6373,4.306598 3.736,5.243097 7.6098,3.395815 1.8888,-0.900737 4.1172,-1.37563 4.9519,-1.055319 0.9172,0.351945 1.5177,0.02133 1.5177,-0.835555 0,-0.869099 1.989,-1.927706 5.1386,-2.734934 4.5735,-1.172151 5.2389,-1.137952 6.0497,0.31095 0.5011,0.89537 1.5734,1.627946 2.3828,1.627946 0.8095,0 1.967,1.086861 2.5722,2.415246 1.2303,2.700205 4.8567,4.220777 4.8567,2.036447 0,-0.763771 1.536,-1.649213 3.5,-2.017671 1.925,-0.361132 3.5,-1.056523 3.5,-1.545313 C 1662,90.399919 1662.4987,90 1663.1082,90 1664.8534,90 1674,94.403868 1674,95.244148 1674,95.659867 1674.8962,96 1675.9915,96 c 1.0954,0 2.5536,0.9 3.2406,2 1.7633,2.82357 7.061,2.69729 8.9943,-0.21439 1.3777,-2.074998 1.6214,-2.116134 3.8719,-0.653494 1.369,0.889748 3.9623,1.434133 6.0313,1.266083 1.9962,-0.162146 4.4472,0.303075 5.4465,1.033824 1.5543,1.136517 2.293,1.020587 5.1081,-0.801693 2.1033,-1.361459 3.2955,-2.942392 3.3034,-4.38033 0.016,-2.83762 2.3863,-2.929105 6.7624,-0.26096 2.7004,1.646491 3.25,1.725099 3.25,0.464877 0,-2.549092 2.9859,-2.840471 6.0317,-0.588606 1.588,1.174079 3.6101,2.134689 4.4935,2.134689 0.8835,0 2.4767,0.465833 3.5405,1.035184 1.3334,0.713578 1.9343,0.713578 1.9343,0 C 1738,96.465833 1738.6269,96 1739.393,96 c 0.7662,0 1.652,-0.675 1.9686,-1.5 0.752,-1.959532 3.5243,-1.91324 5.7444,0.09592 1.6189,1.465083 1.968,1.444587 4.2588,-0.25 2.7017,-1.998527 3.9958,-5.005027 2.5413,-5.90394 -0.4983,-0.308007 -0.9061,-1.260915 -0.9061,-2.117573 0,-1.122172 0.6988,-1.42397 2.5,-1.079655 1.9424,0.371317 2.5,0.06277 2.5,-1.383423 0,-2.495266 2.6568,-2.371106 4.0265,0.188169 1.0703,1.999848 1.2143,1.965149 5.9433,-1.432332 6.9207,-4.972048 11.8368,-6.285673 15.8182,-4.226807 4.0016,2.069317 4.0215,2.064178 3.4568,-0.890358 -0.5044,-2.638582 1.3938,-3.461406 3.387,-1.468182 0.7091,0.709091 1.8514,0.212228 3.6522,-1.588561 1.6468,-1.646822 3.1026,-2.33039 3.9182,-1.839859 0.9487,0.570547 0.9232,0.318855 -0.095,-0.935606 -2.0816,-2.56535 -0.6918,-3.091295 4.401,-1.665426 3.966,1.110427 4.7251,1.072536 5.7786,-0.288466 1.9059,-2.462034 9.5462,-5.990759 11.7329,-5.418918 1.4457,0.378044 1.98,0.01922 1.98,-1.329585 0,-2.546851 1.7643,-3.404394 3.7064,-1.801487 1.2712,1.049197 1.7092,1.067682 2.0396,0.08609 0.2313,-0.6875 1.2356,-1.25 2.2316,-1.25 0.996,0 3.2561,-1.35 5.0224,-3 3.6179,-3.379604 5.5592,-3.597528 17.3897,-1.952064 6.505,0.904766 7.88,0.821433 10.0646,-0.609951 1.3916,-0.911838 3.2087,-1.397533 4.038,-1.079321 1.029,0.394853 1.5077,-0.04653 1.5077,-1.390049 0,-2.572941 0.6415,-2.489071 5.2176,0.682176 3.296,2.284151 4.1744,2.491621 6.3508,1.5 2.8695,-1.307423 8.4316,-1.549128 8.4316,-0.366399 0,1.203345 5.5605,4.215608 7.7818,4.215608 1.0853,0 2.5335,-0.675 3.2182,-1.5 0.6847,-0.825 2.0812,-1.5 3.1034,-1.5 1.1484,0 2.0982,-0.95519 2.486,-2.5 0.6818,-2.716497 1.5629,-3.024046 4.366,-1.523892 1.4431,0.772371 1.9317,0.563647 2.3406,-1 0.394,-1.505682 1.3725,-1.976109 4.1107,-1.976109 5.8321,1.131782 3.668,21.12263 2.2348,22.180925 z" fill="none" stroke="#000"/>
</svg>
