<svg xmlns="http://www.w3.org/2000/svg" width="1920" height="136">
  <path d="M1919 89.868c0 2.85-5.924 3.202-26.475 1.576-24.604-1.946-32.201-3.08-35.89-5.36-1.73-1.07-6.967-3.576-11.64-5.57-7.466-3.188-10.01-3.74-20.995-4.552-6.875-.51-14.626-1.324-17.225-1.81-4.126-.772-4.797-.657-5.295.912-.7 2.202-5.276 3.336-8.556 2.12-1.333-.493-3.039-.682-3.79-.419-.75.264-1.695-.054-2.097-.706-.954-1.543-7.317-1.72-7.818-.217-.576 1.728-11.203 1.483-13.177-.304-.888-.804-3.242-2.141-5.23-2.972-3.155-1.318-3.767-1.326-4.818-.059-2.865 3.452-10.178 5.623-11.536 3.425-.363-.588-1.194-.863-1.847-.613-1.129.433-21.447-1.596-28.39-2.835-1.803-.322-4.728-1.416-6.5-2.43-4.739-2.716-15.85-4.366-20.665-3.07-2.145.579-4.049 1.49-4.229 2.026-.803 2.39-23.103.22-25.266-2.458-1.419-1.758-9.234-2.891-10.114-1.467-.37.6-1.452.886-2.403.637-.952-.25-3.457.387-5.566 1.413-2.11 1.026-5.557 1.865-7.661 1.865-2.104 0-8.148 1.15-13.43 2.556-6.043 1.607-10.692 2.316-12.537 1.911-1.717-.377-3.517-.159-4.343.527-.83.689-2.355.872-3.701.444-2.783-.883-12.153-1.337-28.806-1.397-9.457-.034-14.595-.578-21.106-2.235-8.489-2.159-8.749-2.165-18.996-.483-7.109 1.167-10.501 1.368-10.744.638-.196-.587-.95-.256-1.676.736-1.15 1.571-2.896 1.799-13.577 1.769-8.262-.023-12.381-.406-12.637-1.175-.272-.815-1.403-.713-3.964.357-4.486 1.874-7.89 1.088-11.872-2.74-3.608-3.47-8.33-4.044-13.077-1.59-7.623 3.942-19.207 3.933-23.573-.02-1.747-1.58-2.188-1.573-7.133.108-4.311 1.465-5.987 1.593-9.208.698-6.416-1.781-16.972-1.382-21.257.804-2.057 1.05-6.314 2.657-9.46 3.571-3.274.952-5.72 2.234-5.72 2.998 0 1.885-8.11 2.862-22.726 2.738-6.724-.057-12.471.295-12.772.781-.3.486-3.675.622-7.5.301-4.171-.35-7.462-.172-8.227.444-1.643 1.324-13.309 1.546-17.525.333-2.132-.613-3.25-.588-3.25.071 0 .553-1.238.885-2.75.737-1.513-.148-3.875.35-5.25 1.105-2.799 1.54-16.38 1.501-23.995-.067-18.018-3.71-46.818-5.202-53.536-2.773-2.392.865-4.694.742-10.516-.565-4.1-.92-8.128-1.697-8.953-1.726-2.341-.083-17.98 3.167-23.204 4.822-2.919.924-7.378 1.363-11.752 1.156-3.877-.184-7.048-.009-7.046.389 0 .397-4.386.694-9.748.659-5.363-.035-12.96.634-16.882 1.488-5.91 1.287-9.59 1.388-21.476.588-9.283-.624-15.41-.62-17.368.01-3.621 1.166-22.998 2.502-30.024 2.07-14.332-.88-36.007.071-37.586 1.649-.765.764-2.91.982-6.033.613-3.189-.378-5.363-.145-6.358.68-.832.691-2.504.997-3.716.68-1.211-.317-2.783-.095-3.492.494-.738.612-2.044.73-3.052.274-.97-.438-4.463-.917-7.763-1.064-3.3-.147-8.8-.568-12.221-.934-3.422-.366-7.022-.321-8 .1C979.612 92.68 969 93 969 91.93c0-.511-.707-.93-1.571-.93-.865 0-2.301-.73-3.192-1.62-1.323-1.323-2.92-1.505-8.679-.99-6.488.578-7.578.382-13.5-2.428-5.686-2.7-7.092-2.98-12-2.39-3.057.367-6.34 1.354-7.297 2.193-1.372 1.203-3.345 1.404-9.335.95-4.257-.321-9.964-.077-12.982.556-4.395.922-6.264.85-10.165-.396-4.41-1.408-5.088-1.387-8.779.273-4.932 2.219-9.263 2.295-18.611.329-4.939-1.04-7.568-1.198-8.266-.5-1.33 1.33-7.318 1.325-8.142-.008-.37-.598-2.076-.76-4.07-.386-2.17.407-3.99.182-4.946-.612-.871-.723-5.28-1.414-10.4-1.63-8.505-.358-8.864-.287-8.36 1.643.45 1.714.045 2.016-2.703 2.016-1.778 0-7.482-1.158-12.676-2.573-8.326-2.268-11.894-2.626-30.135-3.027-27.943-.614-29.22-.6-30.54.333-2.531 1.787-43.994.097-53.038-2.162-10.226-2.555-22.76-2.12-24.943.866-1.882 2.573-9.689 2.499-16.67-.158-3.025-1.151-10.45-3.017-16.5-4.146l-11-2.052-1.6 2.086c-1.327 1.73-2.265 1.976-5.5 1.437-2.145-.357-4.8-.6-5.9-.542-1.1.06-5.257.055-9.238-.01-3.98-.065-11.18.536-16 1.335-10.318 1.711-20.352 1.912-24.093.482-1.468-.562-7.169-1.193-12.669-1.404-5.5-.21-14.725-.684-20.5-1.052-14.12-.902-28.698-.674-39 .608-7.003.871-9.776.775-15.748-.55-6.857-1.52-11.048-1.29-12.317.673-.648 1.003-3.56 1.065-21.08.45-10.144-.357-13.433-.848-16.641-2.485-3.959-2.02-4.004-2.02-4.513-.074-.535 2.046-3.145 2.673-4.177 1.003-.377-.609-1.591-.575-3.31.093-3.72 1.445-25.214 2.197-25.214.882 0-1.851-2.855-1.046-3.5.987-.531 1.674-1.513 2-6.02 2-2.962 0-6.475.496-7.806 1.103-1.745.795-2.987.8-4.448.018-1.523-.815-2.146-.771-2.51.176-.624 1.628-15.033 2.139-17.846.633-1.115-.596-2.779-.76-3.698-.363-.92.397-4.321.824-7.56.948-4.062.155-6.152.7-6.743 1.754-1.308 2.337-10.262 4.077-17.504 3.4-4.255-.397-6.365-.236-6.365.485 0 .594-.878.85-1.952.569-1.074-.281-2.086-.12-2.25.358-.164.478-6.797 1.106-14.74 1.395-8.158.298-14.716.97-15.073 1.548-.826 1.337-14.933.61-17.785-.917-1.217-.651-7.085-1.215-13.43-1.29-6.199-.075-12.508-.482-14.02-.906-1.582-.444-2.75-.376-2.75.159 0 .511-1.313.93-2.917.93-1.604 0-3.086.51-3.294 1.133-.23.688-3.905 1.302-9.333 1.562-4.926.235-11.431.885-14.456 1.443-10.137 1.872-14.19 2.098-16.4.916-1.574-.843-2.945-.873-4.953-.11-3.09 1.175-2.806 1.175-7.647.007-1.925-.464-5.525-.928-8-1.03-2.475-.104-6.56-.599-9.079-1.1-4.105-.819-20.105-1.834-28.7-1.822-1.805.002-5.58-1.16-8.388-2.584-3.126-1.583-5.35-2.197-5.73-1.58-1.04 1.681-5.787 2.404-8.004 1.218-1.825-.977-5.899-1.215-15.099-.883-1.375.05-5.65-.87-9.5-2.045-6.429-1.962-7.098-2.003-8.202-.505-.855 1.16-2.012 1.445-4 .986-1.539-.354-5.32-.847-8.404-1.095-3.083-.248-6.76-.89-8.172-1.427-1.688-.642-4.852-.62-9.24.063-3.67.572-8.543.83-10.828.572-5.35-.601-15.615-4.847-15.637-6.469L1 41.285c0-.922.578-1.277 1.5-.923.825.316 1.5.14 1.5-.393 0-1.202 20.573-1.196 35 .01 18.951 1.585 26.597 2.937 31.213 5.517 10.909 6.096 19.01 8.706 29.787 9.595 5.775.476 13.232 1.148 16.571 1.494 5.047.523 6.373.328 7.858-1.157 1.014-1.014 3.146-1.75 4.93-1.7 6.802.188 9.166.55 9.762 1.49.341.54 2.255.982 4.253.982 1.997 0 3.858.366 4.135.814.593.96 8.63-2.95 9.79-4.764 1.215-1.899 6.296-1.497 10.923.863 4.76 2.429 11.308 2.755 17.5.871 3.756-1.142 4.944-1.047 10.766.865 5.019 1.647 6.956 1.89 8.31 1.045 1.334-.833 2.676-.723 5.484.45 2.045.855 3.718 1.127 3.718.605 0-1.443 8.228-1.133 12.808.483 3.679 1.298 10.53 1.596 30.21 1.313 2.484-.035 5.634.547 7 1.295 1.365.747 3.495 1.237 4.732 1.088 1.238-.15 2.25.099 2.25.55 0 .452 1.238.91 2.75 1.017 1.512.108 4.467.498 6.566.868 2.099.369 6.518.14 9.82-.51 4.627-.91 6.332-.91 7.434.005 1.02.846 1.43.864 1.43.064 0-1.637 2.091-1.38 6.641.819 2.21 1.067 5.557 1.93 7.438 1.917 1.882-.014 5.567.161 8.19.388 3.182.275 5.137-.03 5.873-.917 1.475-1.778 3.858-1.692 3.858.14 0 .9.586 1.244 1.513.888.832-.32 2.1-.094 2.816.501 1.431 1.188 8.683-.305 9.753-2.007.905-1.44 12.034-1.816 15.76-.533 2.92 1.005 3.518.91 4.73-.746 1.237-1.693 2.755-1.894 14.157-1.871 18.408.036 30.271.584 30.271 1.398 0 .982 10.374 1.657 11.041.72.298-.42 4.348-1.052 9-1.407 11.716-.894 12.951-.893 17.209.013 3.049.648 3.75.511 3.75-.734 0-.877 1.176-1.757 2.75-2.058 8.53-1.631 11.627-1.77 13.785-.614 2.845 1.522 8.741.563 11.11-1.808 3.378-3.381 17.444-4.501 25.925-2.064 1.669.48 9.798-1.207 11.125-2.309.712-.59 2.293-.813 3.514-.494 1.22.32 4.823.308 8.005-.024 4.754-.497 5.786-.936 5.786-2.462 0-1.578.803-1.858 5.333-1.858 2.934 0 5.658.324 6.054.72 1.192 1.192 12.954.345 13.787-.993.6-.963 1.217-.946 2.868.077 1.636 1.014 2.863 1.052 5.53.172 1.886-.622 3.428-1.546 3.428-2.054 0-1.397 6.502-1.103 10.216.462 5.626 2.372 13.045 3.811 13.752 2.669.434-.704 3.408-.69 9.41.044 7.435.91 9.031.845 10.449-.42 1.94-1.733 9.847-1.565 18.602.395 4.213.942 5.832.956 6.915.058.993-.825 2.183-.88 4.008-.186 1.833.697 3.703.603 6.371-.321 4-1.385 12.256-1.412 37.277-.12 7.975.41 15.027 1.167 15.672 1.68.744.592 1.914.468 3.209-.34 1.653-1.033 3.13-1.024 7.828.048 10.292 2.348 10.883 2.374 12.693.564 1.468-1.468 2.08-1.535 4.102-.453 1.438.77 3.884 1.035 6.187.672 11.356-1.79 30.726-2.691 34.078-1.585 2.99.987 3.648.918 4.422-.465 1.16-2.074 8.062-2.135 16.309-.144 3.3.797 7.45 1.465 9.221 1.484 1.772.02 5.766 1.161 8.875 2.536 7.074 3.129 8.442 3.121 11.877-.063 1.733-1.606 3.748-2.486 5.396-2.356 1.447.113 3.408-.128 4.359-.536.95-.408 7.25.222 14 1.4s17.672 2.306 24.272 2.506c6.6.2 15.825.567 20.5.815 4.675.247 9.032.034 9.681-.473 1.807-1.413 9.691-1.406 21.643.018 10.29 1.226 17.454.931 22.422-.921 1.535-.572 5.78.08 13.4 2.061 9.57 2.487 11.452 2.712 13.254 1.58 1.358-.854 5.013-1.268 10.35-1.174 4.537.08 8.25-.192 8.25-.605 0-1.428 4.51-.738 7.635 1.167 2.174 1.326 3.454 1.592 4.177.87.62-.622 2.182-.732 3.865-.275 3.943 1.073 7.71 1.14 8.435.15.337-.46 2.812-.075 5.5.855 7.1 2.458 18.565 2.518 21.234.112 1.514-1.364 2.826-1.679 4.864-1.167 1.534.386 9.906.85 18.604 1.034 12.236.257 15.926.04 16.31-.959.323-.843 3.62-1.535 9.517-1.996 7.43-.581 9.322-.434 10.727.837 3.732 3.378 8.846 4.66 15.948 4 6.228-.578 7.28-.39 11.732 2.095 4.081 2.278 5.556 2.608 8.92 1.996 2.218-.404 5.852-.84 8.076-.97s5.058-.557 6.298-.95c1.298-.413 2.843-.227 3.643.437 2.218 1.84 9.515 2.036 9.515.255 0-1.073.615-1.284 2.25-.773 6.098 1.906 10.795 2.187 12.821.768 1.553-1.088 2.977-1.221 5.747-.535 2.612.646 4.408.538 6.182-.373 1.375-.706 5.425-1.338 9-1.404 15.543-.287 24.836-.251 29.5.114 8.234.645 27.753-1.111 30.33-2.729 1.33-.834 3.05-1.15 4-.736.919.4 7.52 1.063 14.67 1.474 9.935.571 14.712.4 20.263-.727 4.068-.825 10.776-1.33 15.252-1.148 6.24.255 7.99.027 7.987-1.038 0-1.074 1.005-1.19 4.748-.548 6.35 1.089 11.688.754 15.56-.977 1.754-.784 5.733-1.655 8.84-1.936 3.108-.28 8.131-1.292 11.163-2.248 5.244-1.653 5.694-1.652 9.21.016 2.407 1.143 5.661 1.683 9.336 1.551 12.373-.446 42.963-.11 48.141.529 3.025.373 7.3 1.263 9.5 1.977 5.562 1.806 21.345 1.701 24.298-.16 1.264-.797 3.064-1.323 4-1.17.936.154 2.244-.06 2.906-.476.662-.415 3.96-.118 7.33.66 5.34 1.234 6.85 1.224 11.795-.076 3.476-.914 7.896-1.293 11.421-.98 3.564.318 5.75.126 5.75-.504 0-.622 1.373-.759 3.54-.353 1.946.366 9.596.35 17-.034 11.988-.622 13.46-.893 13.46-2.482 0-1.368 1.34-2.058 5.75-2.963 3.162-.648 8.44-2.304 11.73-3.68 6.193-2.59 5.98-2.581 26.52-1.156.825.057 4.13-.429 7.346-1.08 5.202-1.052 6.06-.99 7.787.575 3.102 2.807 12.542 3.059 18.351.489 6.208-2.746 14.526-2.862 16.902-.235 2.566 2.834 10.408 3.433 13.466 1.027 1.33-1.046 3.308-1.902 4.396-1.902 1.63 0 1.901.53 1.539 3l-.44 3 7.576-.014c9.685-.017 11.958-.663 12.696-3.605.73-2.908 3.614-3.128 5.509-.42 1.305 1.864 1.667 1.89 7.372.515 8.436-2.031 12.453-1.844 24.36 1.138 8.817 2.207 11.017 2.44 14.159 1.498 2.046-.613 5.016-.884 6.6-.602 1.585.281 8.843.64 16.131.797 12.189.263 13.25.142 13.25-1.51 0-2.447 2.64-2.284 3.29.203.293 1.122 1.364 2 2.438 2 3.61 0 11.272-3.164 11.272-4.655 0-1.212 1.193-1.349 6.884-.788 5.976.59 7.015.445 7.874-1.089.695-1.242 1.685-1.585 3.329-1.156 1.508.395 3.014.004 4.238-1.1 2.644-2.385 15.127-2.016 17.945.53 1.07.967 2.694 1.635 3.61 1.484.914-.15 4.236.574 7.38 1.612 4.97 1.64 6.061 1.708 8.343.524 1.444-.75 3.374-1.362 4.289-1.362.915 0 2.55-.619 3.636-1.375 1.674-1.166 3.107-1.165 9.472.012 8.397 1.553 18.008 4.29 19.45 5.54.523.453 3.223.83 6 .84 2.778.01 8.075.659 11.771 1.442 8.209 1.74 13.779 1.097 13.779-1.59 0-2.264 2.274-2.448 4.035-.327.888 1.07 1.6 1.224 2.323.5 1.705-1.705 6.642-1.286 6.642.565z" fill="#fff"/>
</svg>
