<svg xmlns="http://www.w3.org/2000/svg" width="1920" height="188">
  <path style="fill:white;stroke:none;" d="m 1919,122.15751 c 0,2.15199 -0.045,2.15588 -17.5183,1.52389 -22.0784,-0.79853 -41.1218,-3.27856 -44.3082,-5.77025 -1.2795,-1.00058 -7.0408,-3.66246 -12.8027,-5.91528 -8.9768,-3.50973 -11.5781,-4.10049 -18.1736,-4.12712 -4.2334,-0.0171 -9.0828,-0.45407 -10.7762,-0.97104 -4.2854,-1.30821 -13.421,-1.86017 -13.421,-0.81088 0,0.4769 -1.0548,1.55823 -2.344,2.40295 -2.1387,1.40135 -3.1096,1.34004 -11.0854,-0.70002 -7.8191,-1.99996 -8.8338,-2.07084 -9.6167,-0.67178 -1.2984,2.32 -9.7063,2.22197 -12.7196,-0.1483 -1.2976,-1.02068 -3.9404,-2.37763 -5.873,-3.01543 -3.1404,-1.03641 -3.7634,-0.92506 -5.8635,1.04784 -1.2924,1.21411 -2.8331,1.90877 -3.4238,1.54369 -0.5907,-0.36508 -1.074,0.0378 -1.074,0.89523 0,1.63775 -3.4902,2.19295 -4.4118,0.7018 -0.2913,-0.47147 -4.4804,-1.16019 -9.309,-1.53049 -4.8285,-0.3703 -10.5792,-0.90222 -12.7792,-1.18203 -2.2,-0.27982 -4.9902,-0.49798 -6.2004,-0.48481 -1.2103,0.0132 -2.4622,-0.39952 -2.7821,-0.91708 -0.3198,-0.51756 -1.2589,-0.6811 -2.0868,-0.36341 -0.8278,0.31768 -2.3881,-0.22144 -3.4672,-1.19804 -2.1986,-1.98964 -19.7195,-5.670735 -20.5552,-4.31857 -0.2895,0.468408 -1.6024,0.85165 -2.9176,0.85165 -1.3152,0 -2.7512,0.606747 -3.191,1.34833 -1.0598,1.78691 -8.3051,2.89204 -9.9594,1.51911 -0.7074,-0.58709 -2.8746,-1.06744 -4.816,-1.06744 -1.9414,0 -3.7541,-0.36275 -4.0281,-0.80612 -0.274,-0.443366 -1.3167,-0.592081 -2.3171,-0.330477 -1.0003,0.261603 -2.405,-0.230643 -3.1214,-1.09388 C 1657.3413,97.706285 1655.4602,97 1653.8776,97 1652.2949,97 1651,96.589089 1651,96.086864 c 0,-0.94143 -0.8009,-0.7464 -11.5,2.800452 -3.3,1.09398 -8.025,1.990244 -10.5,1.991694 -2.475,0.001 -7.2,0.96092 -10.5,2.13215 -5.4364,1.92945 -7.7848,2.10627 -25,1.88224 -10.45,-0.13599 -22.8291,-0.14094 -27.5092,-0.011 -6.5346,0.18143 -10.8275,-0.37078 -18.5,-2.37971 -7.9931,-2.09291 -10.6906,-2.42067 -13.4908,-1.63923 -9.7258,2.71416 -14.4474,3.24514 -15.5423,1.74784 -0.9203,-1.2586 -1.2264,-1.2113 -2.1947,0.33917 -1.4971,2.39724 -8.5568,3.38005 -17.9541,2.49945 -7.2508,-0.67945 -7.4788,-0.78096 -7.0298,-3.12975 l 0.4641,-2.427527 -2.1646,2.033547 c -5.1947,4.8801 -9.8261,4.75536 -15.5786,-0.41956 -3.8,-3.418437 -7.1595,-3.796802 -12.6697,-1.42689 -2.6567,1.14264 -7.6257,2.31554 -11.0424,2.60645 -5.1319,0.43694 -7.0313,0.13234 -10.9234,-1.75178 -4.597,-2.225369 -4.8262,-2.23988 -9.4483,-0.59824 -3.7116,1.31824 -5.3517,1.44778 -7.5766,0.59839 -4.9244,-1.879956 -18.7875,-1.256886 -23.3042,1.0474 -2.1757,1.10992 -4.5795,2.01804 -5.3419,2.01804 -0.7624,0 -2.7996,0.7051 -4.5271,1.56689 -1.7275,0.86179 -3.5547,1.31117 -4.0604,0.99862 -0.5057,-0.31255 -0.6987,0.27589 -0.4289,1.30764 0.4309,1.64777 -0.3159,1.96227 -6.1408,2.58606 -3.6472,0.39058 -14.5974,0.8589 -24.3338,1.0407 -9.7364,0.1818 -20.9382,0.88022 -24.893,1.55205 -5.3219,0.90406 -8.3032,0.93908 -11.4719,0.13478 -3.0924,-0.78492 -4.469,-0.78307 -4.9571,0.007 -0.3717,0.60136 -1.6908,0.82796 -2.9314,0.50354 -1.2405,-0.32441 -3.5142,0.0611 -5.0527,0.8566 -4.8461,2.50606 -26.9511,1.27567 -30.5656,-1.70131 -0.643,-0.52964 -8.743,-1.24091 -18,-1.5806 -20.9338,-0.76817 -24.9356,-0.66534 -29.3312,0.75368 -2.8066,0.90607 -4.7885,0.79646 -10,-0.55307 -3.5748,-0.92571 -7.6246,-1.6922 -8.9996,-1.70332 -3.4134,-0.0276 -18.438,2.99849 -24.2272,4.87955 -2.8416,0.92331 -7.2293,1.41014 -11,1.22048 -3.45,-0.17353 -6.871,0.0586 -7.6021,0.51577 -0.7311,0.45721 -4.1061,0.54333 -7.5,0.19139 -4.3139,-0.44735 -9.4131,-0.0378 -16.9463,1.36125 -8.1211,1.50819 -11.9394,1.78068 -15.5,1.10616 -7.1453,-1.3536 -22.3574,-1.45331 -25.5584,-0.16752 -1.5587,0.6261 -6.7337,1.19097 -11.5,1.25525 -4.7663,0.0643 -10.2643,0.44318 -12.2178,0.84198 -2.0225,0.41289 -6.9647,0.14055 -11.4784,-0.63253 -6.2123,-1.06398 -9.1209,-1.11002 -13.4482,-0.21283 -5.1452,1.06673 -8.8946,1.42299 -23.059,2.19104 -3.0456,0.16514 -6.0197,0.59836 -6.6093,0.9627 -1.4425,0.89152 -7.9761,1.00576 -33.00035,0.57701 -18.40468,-0.31533 -21.39755,-0.58902 -23.07874,-2.11047 C 963.75297,120.37145 961.52944,120 954.80963,120 c -7.42288,0 -9.21179,-0.36276 -13.75181,-2.7886 -4.9154,-2.62641 -5.57774,-2.7303 -11.38837,-1.78631 -3.3932,0.55126 -6.76409,1.58113 -7.49088,2.2886 -1.51108,1.47092 -6.63769,1.59658 -13.17857,0.32302 -2.69802,-0.52532 -4.63348,-0.50788 -4.83333,0.0435 -0.46528,1.28379 -13.85911,1.15471 -16.31041,-0.15719 -1.52467,-0.81598 -2.82209,-0.69263 -5.35442,0.50903 -5.63088,2.67203 -8.97419,2.85489 -18.50881,1.01231 -7.12342,-1.3766 -9.34091,-1.49956 -9.92747,-0.55048 -0.7976,1.29054 -5.55903,0.62024 -7.7372,-1.08923 -0.73669,-0.57817 -1.95291,-0.43417 -3.27619,0.38789 -1.81068,1.12485 -2.6336,1.00393 -5.89333,-0.86596 -2.41088,-1.38296 -4.28856,-1.86449 -5.16302,-1.32405 -0.75583,0.46713 -4.41347,0.59453 -8.12809,0.28311 -6.53119,-0.54755 -6.7354,-0.49566 -6.19416,1.57405 0.41621,1.59159 0.10602,2.14026 -1.21,2.14026 -1.77436,0 -21.54434,-4.4399 -26.72314,-6.00143 -1.61985,-0.48842 -4.3044,-0.40042 -6.5,0.21306 -2.40077,0.67081 -8.39647,0.77407 -16.74043,0.28832 -16.3347,-0.95093 -17.71379,-0.94265 -30.5,0.18319 -12.52531,1.10287 -35.3083,-0.10962 -46,-2.44808 -10.55217,-2.30794 -22.53288,-2.01827 -25.3527,0.61298 -3.70582,3.458 -7.00669,3.6211 -14.28848,0.70599 -3.65614,-1.46365 -8.04507,-2.79359 -9.75318,-2.95543 -1.7081,-0.16183 -7.06684,-1.10401 -11.90831,-2.09373 l -8.80267,-1.79949 -1.50404,2.14731 c -1.77784,2.53823 -3.85191,2.68817 -8.7685,0.63389 C 607.62996,108.6542 606,108.39887 606,108.91919 c 0,1.69808 -4.07992,2.29035 -7.11558,1.03294 -2.43398,-1.00819 -4.57284,-0.91934 -11.885,0.49374 -4.90427,0.94776 -9.35434,1.45281 -9.88904,1.12235 -0.5347,-0.33046 -1.25484,-0.1435 -1.6003,0.41547 -0.79717,1.28985 -5.19845,1.32956 -5.98677,0.054 -0.37301,-0.60354 -1.51235,-0.5442 -3.05607,0.15917 -1.87228,0.85307 -3.47917,0.80017 -6.71429,-0.22103 -2.33912,-0.73837 -7.62795,-1.44945 -11.75295,-1.58018 -4.125,-0.13072 -13.125,-0.56803 -20,-0.97179 -17.87333,-1.04969 -43.36946,-0.46077 -47.25248,1.09146 -0.96387,0.3853 -4.95657,-0.023 -8.87267,-0.9074 C 467.95875,108.72357 463.02399,108 460.90872,108 c -3.15523,0 -3.73281,0.29483 -3.21601,1.6416 0.56907,1.48296 -0.27957,1.56697 -8.78138,0.86925 -5.17623,-0.4248 -9.97383,-0.69478 -10.66133,-0.59994 -5.97557,0.82427 -13.61454,-0.0562 -17.44602,-2.01091 C 416.32267,105.61381 416,105.5854 416,107.47708 c 0,1.04365 -1.1004,1.47136 -3.75,1.45759 -3.9788,-0.0207 -12.02789,0.56655 -21.51454,1.5696 -4.48389,0.47409 -6.11043,0.26362 -7.32143,-0.94738 -2.13654,-2.13654 -2.90714,-1.96481 -4.23208,0.94311 -1.02187,2.24277 -1.78436,2.52055 -7.41051,2.69975 -11.08905,0.35319 -12.2427,0.45345 -13.94848,1.21223 -0.92237,0.4103 -4.74737,0.72198 -8.5,0.69262 -23.81128,-0.18631 -24.66825,-0.12797 -26.77663,1.82301 -3.06428,2.83552 -9.76797,4.24292 -17.079,3.58564 -4.54645,-0.40873 -6.46733,-0.23964 -6.46733,0.5693 0,0.65838 -0.85569,0.92694 -2,0.6277 -1.1,-0.28766 -2,-0.11132 -2,0.39186 0,0.50319 -3.4875,0.96056 -7.75,1.01639 -20.4335,0.26765 -22.2501,0.39608 -22.25005,1.57298 6e-5,1.47933 -9.56412,1.11096 -15.79672,-0.60841 -2.36323,-0.65194 -9.56323,-1.33234 -16,-1.51199 -6.43678,-0.17966 -12.94073,-0.65543 -14.45323,-1.05727 -1.78542,-0.47436 -2.75,-0.34184 -2.75,0.37778 0,0.60963 -1.3125,1.10841 -2.91667,1.10841 -1.60416,0 -3.09683,0.5405 -3.31704,1.20112 -0.27329,0.81988 -3.47364,1.21664 -10.08289,1.25 -5.32539,0.0269 -9.68272,0.34107 -9.68296,0.69819 -4.1e-4,0.60335 -2.22985,1.00414 -13.25044,2.38208 -2.3375,0.29227 -4.90392,0.0967 -5.70315,-0.43457 -0.79924,-0.53128 -3.781,-0.79645 -6.62613,-0.58927 -2.84513,0.20718 -8.26621,-0.0634 -12.04684,-0.60124 -11.19779,-1.5931 -16.34628,-2.08239 -26.37388,-2.50645 -15.55006,-0.65762 -17.31004,-0.9177 -21.71016,-3.20822 C 99.888983,118.90073 97,118.38226 97,119.88337 c 0,1.43457 -4.165672,2.09833 -6.231224,0.99288 -1.049333,-0.56158 -5.36408,-1.02784 -9.588327,-1.03613 -4.49416,-0.009 -10.724113,-0.84025 -15.017103,-2.00416 -6.871438,-1.86297 -7.453983,-1.88291 -9.186987,-0.31457 -1.017683,0.921 -2.386728,1.34302 -3.042322,0.93784 -2.809532,-1.73638 -27.649665,-3.72837 -28.539465,-2.28864 -1.100616,1.78083 -10.252589,0.80306 -15.5452754,-1.66082 C 6.9071835,113.14014 3.7125,112.01514 2.75,112.00977 1.7875,112.0044 1,111.325 1,110.5 V 73.422977 c 0,-0.798231 0.6197329,-1.122394 1.5,-0.784603 0.825,0.316582 1.5,0.05138 1.5,-0.589334 0,-0.861742 4.4896178,-1.029035 17.25,-0.642772 18.613885,0.563451 20.183498,0.680006 35.25,2.61757 6.499359,0.835823 10.87516,1.932394 12.5,3.132488 1.375,1.015563 6.890848,3.6464 12.257439,5.846304 8.406854,3.446185 11.036759,4.05516 19.000001,4.3996 5.08341,0.219876 12.31972,0.992518 16.08069,1.716982 6.3057,1.214646 6.91542,1.179107 7.83072,-0.456441 1.26522,-2.260833 5.70273,-3.997764 7.20279,-2.819318 0.6206,0.487543 3.15336,1.210239 5.62836,1.605989 2.475,0.395751 5.9625,0.955757 7.75,1.244458 1.7875,0.288702 3.25,0.912118 3.25,1.385369 0,0.897921 6.21895,-2.811316 9.25,-5.517076 2.34842,-2.096394 4.19601,-1.948077 11.10156,0.891186 3.21836,1.323249 6.40326,2.194202 7.07755,1.93545 0.6743,-0.258751 2.41266,-0.01928 3.86304,0.532146 1.67944,0.638521 2.8529,0.653343 3.23147,0.04081 C 182.85055,87.432805 183.99148,87 185.05902,87 186.12656,87 187,86.55 187,86 c 0,-1.495688 2.40079,-1.223114 9.09768,1.032906 3.93267,1.324821 7.19397,1.815405 9.36316,1.408463 1.89487,-0.35548 4.28161,-0.114388 5.54122,0.559735 1.60017,0.856386 2.51511,0.881724 3.3053,0.09154 1.57106,-1.571059 6.75252,-1.345548 11.81691,0.514304 2.84422,1.044513 7.21625,1.560312 12.49148,1.473709 4.46367,-0.07328 9.18871,0.274702 10.5001,0.773291 1.71293,0.651255 2.75589,0.508778 3.70381,-0.505973 1.49402,-1.599356 6.87494,-0.994092 11.36699,1.278599 1.47766,0.747601 3.39016,1.089315 4.25,0.759363 0.85984,-0.329951 1.56335,-0.16635 1.56335,0.363558 0,1.099449 2.09381,1.337475 14,1.591531 4.675,0.09976 9.13203,0.583364 9.90451,1.074684 0.96672,0.614866 1.1821,0.533451 0.69098,-0.261199 -0.97815,-1.582679 2.62849,-1.503527 4.35121,0.09549 1.07798,1.000565 1.20501,0.999156 0.63662,-0.0071 -1.06133,-1.878875 2.47983,-2.874023 3.81129,-1.071061 0.60796,0.82326 2.45539,1.86214 4.10539,2.308623 4.69319,1.269957 18.77864,1.354363 20.87545,0.125095 1.42215,-0.833743 1.99716,-0.798236 2.33854,0.144406 0.24897,0.6875 1.54018,1.25 2.86934,1.25 1.32917,0 2.41667,0.465833 2.41667,1.035176 0,0.6748 0.60924,0.71024 1.75,0.10181 0.9625,-0.513358 3.1,-1.090063 4.75,-1.281566 1.65,-0.191502 3.27569,-0.726353 3.61263,-1.188557 0.33695,-0.462204 2.13695,-0.985683 4,-1.163288 1.86306,-0.177604 4.57578,-0.625027 6.02828,-0.994273 1.53928,-0.391309 2.91959,-0.22042 3.30901,0.409671 1.00067,1.619112 7.55008,1.373578 7.55008,-0.283049 0,-1.950126 6.49367,-2.556355 20,-1.867138 6.325,0.32276 13.75,0.599378 16.5,0.614706 2.75,0.01533 5.25144,0.385116 5.55875,0.821749 0.91998,1.307131 11.23642,1.794677 12.677,0.599104 0.80448,-0.667657 6.65209,-1.109406 15.04024,-1.136191 11.23948,-0.03589 13.93615,-0.326632 14.89583,-1.60599 C 452.62171,91.795861 455.14625,91.5 465.00149,91.5 c 10.68201,0 12.32245,-0.224943 13.51378,-1.853058 1.94316,-2.65558 14.72078,-4.773198 20.59191,-3.412669 5.24642,1.215767 14.80904,1.080144 16.39064,-0.232462 0.62051,-0.514977 3.34984,-0.99611 6.06519,-1.069186 12.61765,-0.339565 12.05448,-0.227315 11.99404,-2.390642 -0.0514,-1.841242 0.48364,-2.020204 5.44295,-1.820437 11.02388,0.444053 15.56882,0.387996 18.89604,-0.233063 2.15701,-0.402626 3.66121,-0.20486 4.12283,0.542051 0.53935,0.872684 1.25841,0.891436 2.78821,0.07271 C 565.94087,80.49646 567.7981,80 568.93426,80 570.10381,80 571,79.349246 571,78.5 c 0,-2.166337 4.31669,-1.889248 9.17425,0.588897 3.28924,1.678045 6.28084,2.142555 15.21017,2.361709 6.11357,0.150047 12.80308,0.618922 14.86558,1.041945 3.21031,0.658442 3.75,0.514465 3.75,-1.000414 0,-1.618295 0.79065,-1.706574 9.25,-1.032799 12.48202,0.994174 23.37547,0.876371 34.62448,-0.374435 6.49158,-0.721815 11.56577,-0.722839 16.5,-0.0033 3.91904,0.571472 11.50628,1.043964 16.86054,1.049982 5.35426,0.006 9.99331,0.42888 10.30901,0.939694 C 702.31549,83.31949 706,83.260577 706,82 c 0,-1.553313 4.21982,-1.187362 11.13841,0.965946 5.75649,1.791623 6.52526,1.829221 8.66988,0.424012 1.31343,-0.860596 3.09086,-1.237816 4.0225,-0.853686 2.23184,0.920232 8.57135,0.951258 10.03108,0.04909 0.64282,-0.397279 5.6041,-0.908469 11.02509,-1.135976 5.42098,-0.227508 10.64679,-0.716977 11.6129,-1.08771 0.96611,-0.370732 3.97312,-0.105973 6.68224,0.588353 4.28906,1.099253 5.15506,1.054818 6.70053,-0.343811 2.18863,-1.980683 6.7732,-2.020271 14.61737,-0.126223 3.3,0.796817 7.40061,1.464788 9.11246,1.484379 1.71186,0.01959 6.22587,1.319487 10.03114,2.888656 7.15904,2.952149 9.65406,2.903083 12.26356,-0.241172 C 822.69375,83.66408 824.76003,83 826.92244,83 c 2.02266,0 4.12127,-0.443711 4.66359,-0.986025 0.64803,-0.648034 4.2301,-0.435486 10.45,0.620068 5.20518,0.883351 10.34323,1.573117 11.41788,1.532814 1.07466,-0.0403 2.52385,0.399722 3.22043,0.977836 0.76058,0.631218 3.17779,0.78825 6.05094,0.393091 2.63142,-0.361914 6.80723,-0.201383 9.27956,0.356735 2.82905,0.638643 4.61871,0.660926 4.82849,0.06012 0.44993,-1.288541 3.51005,-1.211259 4.84363,0.122323 1.30172,1.301713 16.02889,0.71876 21.74692,-0.860819 2.80422,-0.774653 5.515,-0.778115 9.5,-0.01213 4.75649,0.914274 15.73238,1.154211 32.57612,0.712124 4.64245,-0.121847 13.02022,1.316622 19.59896,3.365159 4.17665,1.300555 4.69563,1.277272 5.65164,-0.253544 0.86884,-1.391234 2.50277,-1.649054 9.35618,-1.476319 4.56693,0.115106 9.05867,-0.262319 9.98164,-0.838722 1.27362,-0.795392 2.59333,-0.508019 5.475,1.192209 3.21451,1.896604 4.14575,2.053504 6.07138,1.022932 1.8437,-0.986707 2.7093,-0.936443 4.5699,0.265362 1.6221,1.047811 3.1751,1.241395 5.2953,0.66006 1.9709,-0.540403 5.5728,-0.248828 10.5,0.849967 9.4227,2.101328 12.6882,2.097666 16.9311,-0.01899 3.821,-1.906181 6.8031,-2.115993 10.4372,-0.734336 1.6372,0.622488 2.6147,0.600982 2.8359,-0.06239 0.2264,-0.679412 1.2349,-0.671081 3.0666,0.02533 1.9645,0.746906 2.7292,0.724103 2.7292,-0.08138 0,-0.798697 2.3616,-0.893172 8.25,-0.330037 10.8972,1.042148 12.852,0.949869 13.8497,-0.653782 0.4611,-0.74121 1.6398,-1.364596 2.6193,-1.385303 0.9796,-0.02071 4.5449,-0.396751 7.923,-0.835653 5.7394,-0.745692 6.4232,-0.612115 10.4313,2.037649 3.8984,2.57727 5.1155,2.840027 13.3579,2.883658 7.4495,0.03943 9.8522,0.45719 13.456,2.339634 4.1983,2.192936 4.8419,2.247329 14.9442,1.262978 5.8063,-0.565758 10.9757,-0.769822 11.4876,-0.453477 1.7922,1.107659 10.1355,1.18555 10.8058,0.100882 0.4035,-0.652824 1.4152,-0.768824 2.5243,-0.289435 3.679,1.590157 9.6482,1.532334 11.4641,-0.111052 1.4714,-1.331573 2.3399,-1.403094 5.2751,-0.434389 2.7492,0.907319 4.014,0.87961 5.8127,-0.127347 1.2645,-0.70784 5.224,-1.375752 8.799,-1.484249 3.575,-0.108496 9.6815,-0.511647 13.5699,-0.895891 4.157,-0.410783 9.1504,-0.252453 12.1194,0.384282 5.695,1.221354 30.9769,-0.05577 34.0905,-1.722089 1.1779,-0.63039 7.3444,-0.662374 17.276,-0.0896 12.593,0.726262 17.0069,0.602663 23.9088,-0.669496 4.6555,-0.858108 11.518,-1.387661 15.25,-1.176785 5.3486,0.302225 6.7854,0.08534 6.7854,-1.024278 0,-1.065577 0.7899,-1.236984 3.25,-0.70529 7.6502,1.653386 10.4258,1.662044 14.75,0.04601 2.475,-0.924955 6.075,-1.846066 8,-2.046914 6.0722,-0.633556 10.3488,-1.500745 15.3386,-3.110286 4.3421,-1.400651 5.1628,-1.404704 8,-0.03951 5.572,2.681239 10.8136,3.35057 15.0525,1.922153 2.8108,-0.947208 7.8079,-1.167879 18,-0.794885 19.4227,0.710801 30.9048,1.671449 32.2024,2.694193 1.774,1.398324 13.8198,2.766402 14.5293,1.650145 0.4031,-0.634152 1.3081,-0.613059 2.5653,0.05979 1.3257,0.709473 3.192,0.719116 5.8772,0.03037 11.2041,-2.873761 13.6619,-3.154529 18.2809,-2.088325 3.4902,0.805636 6.0453,0.759576 10.1584,-0.183127 3.0225,-0.692721 12.4704,-1.394279 20.9954,-1.559018 8.525,-0.164738 17.075,-0.387644 19,-0.495348 1.925,-0.107704 5.6234,-0.272735 8.2186,-0.366736 3.6275,-0.131389 4.5923,-0.500045 4.1725,-1.594219 -0.6862,-1.788143 1.824,-3.134294 7.6089,-4.080399 2.475,-0.404781 6.1937,-1.594366 8.2639,-2.643523 4.5542,-2.308153 16.7806,-3.299469 23.1338,-1.875692 3.4616,0.77576 5.9072,0.647249 10.6099,-0.557537 5.017,-1.285296 6.3902,-1.334317 7.6681,-0.273749 4.7478,3.94033 13.2093,4.139225 21.6964,0.509992 5.8836,-2.515903 11.784,-2.183009 14.6091,0.82423 1.654,1.760567 2.989,2.314589 4.6019,1.909773 1.2496,-0.313633 3.0691,-0.124196 4.0432,0.420972 1.3393,0.749482 2.6329,0.405673 5.3046,-1.409772 4.8944,-3.325813 6.471,-3.160674 5.7191,0.599013 l -0.6,3 h 9.275 c 9.5672,0 11.675,-0.758267 11.675,-4.2 0,-2.421994 2.548,-2.283402 4.3116,0.23452 1.322,1.887427 1.8503,1.954738 7.3067,0.931014 11.6118,-2.17857 12.7886,-2.151235 23.3817,0.543125 7.469,1.899732 11.6547,2.478063 14.5,2.003445 5.093,-0.849551 4.2915,-0.840992 22.25,-0.237616 14.4776,0.486426 15.25,0.416479 15.25,-1.381056 C 1761,73.852044 1761.675,73 1762.5,73 c 0.8333,0 1.5,0.888889 1.5,2 0,1.493795 0.6667,2 2.634,2 4.316,0 10.4146,-2.222251 11.4602,-4.175961 0.9317,-1.74095 5.9066,-2.645812 5.905,-1.074039 0,1.215248 8.3739,0.630595 8.7886,-0.613517 C 1792.9962,70.511417 1794.6776,70 1796.5243,70 c 1.8467,0 3.6358,-0.45 3.9757,-1 0.3399,-0.55 1.454,-1 2.4757,-1 1.0217,0 2.0076,-0.428628 2.191,-0.952506 0.532,-1.520306 11.9707,0.419882 13.3151,2.258463 0.7353,1.005648 1.975,1.387357 3.3434,1.029501 1.2742,-0.333205 2.1748,-0.106306 2.1748,0.547911 0,0.614147 1.5811,1.116631 3.5136,1.116631 1.9324,0 4.3227,0.505353 5.3118,1.123007 1.386,0.865609 2.5176,0.751007 4.9367,-0.5 C 1839.4883,71.730353 1841.733,71 1842.7503,71 c 1.0174,0 2.3672,-0.517504 2.9997,-1.150009 1.4744,-1.47441 13.7867,0.456751 23.75,3.725156 3.85,1.262968 10.2355,2.551101 14.19,2.862518 3.9545,0.311418 8.3984,1.025647 9.8753,1.587176 1.477,0.561529 4.877,0.898156 7.5558,0.74806 3.8658,-0.216614 4.8712,-0.633848 4.8746,-2.022901 0.01,-2.303544 3.5942,-2.303544 4.8874,0 0.9356,1.666667 1.0145,1.666667 1.6566,0 0.8937,-2.319455 6.4603,-2.442684 6.4603,-0.143011 z" fill="none" stroke="#000"/>
</svg>
