<svg xmlns="http://www.w3.org/2000/svg" width="70" height="70" filter="url(#blurMe)">
  <filter id="blurMe">
    <feTurbulence type="turbulence" baseFrequency="0.1" numOctaves="4" result="turbulence"/>
    <feDisplacementMap in2="turbulence" in="SourceGraphic" scale="10" xChannelSelector="R" yChannelSelector="G"/>
    <feGaussianBlur stdDeviation="1"/>
    <!-- <feMorphology operator="dilate" radius="5"/> -->
  </filter>
  <path d="M1.4746876 29.756664c2.506321-2.63466 3.934294-5.99656 5.372535-9.26257 1.531923-2.23175 3.8571714-4.43494 6.7400734-4.37947 3.286713-.89829 2.539514-5.20282 4.64185-7.2718102 2.735073-2.45816 7.106902-1.12128 9.335413-4.63702 2.179846-2.64497 5.703111-1.57782 8.488126-2.73794.95748-1.22062001 1.30814-2.19935001 2.03793-.15035 2.18281 1.92359 5.81168 2.26966 6.74855 5.58761.99518 2.93553 7.2577 2.35356 5.86874 5.7179502-2.54018 3.80726 3.72008 1.03853 5.5307 1.30068 3.52389 1.51712-2.45043 3.88739-2.6936 6.27646-2.52934 3.52033.36203 6.58796 3.05403 8.68783.48831 2.06128-2.54706 4.16859-1.75396 6.79867.3887 1.61309-2.10377 3.60397.44098 2.16754 3.90621-1.10477 4.41753 4.25759 4.15839 6.88273-2.81353 1.73774-4.66228 4.52972-6.9414 6.90563-1.94119 1.97715-5.32298 2.05551-6.53736 4.82033-1.00842 3.08218-1.85644 6.74841-6.0283 5.64632-3.83563.37474-6.293469 4.47854-10.273089 4.39862-3.393445-.89536-6.024732-3.8975-9.714209-3.98855-2.985766.38313-6.244185-.21672-6.901745-3.63978-3.4591704-1.40549-8.0654864-.92257-10.5866734-4.1778-1.082298-2.66952.09434-5.79219-2.31086695-7.85024.836705-2.88671 3.75805495-5.06042 3.19411995-8.52617.708688-3.13529 5.336924-6.43545 4.393896-9.14497-2.082821.92588-3.871309 4.91235-5.550019 4.56028-.695948-1.12733-1.67361995-2.71746-.714111-3.98398z" fill="#000" stroke="#000"/>
</svg>
