<svg xmlns="http://www.w3.org/2000/svg" width="438.533" height="438.533">
  <path fill="white" d="M112.56069743 27.49261442C32.65489098 70.3201804-13.2507617 166.48490636 2.6756632 255.61971535c14.74277633 95.00808953 98.60444386 174.32003788 194.73618748 182.08212604 85.26545839 9.11415957 173.52873222-36.38579555 214.1368709-112.20733292 42.49244972-76.4053393 34.37251022-177.8597928-22.13930316-245.09869008C337.15236497 15.5364936 246.52637518-14.80010675 165.84618618 6.33521087c-18.60419516 4.61644311-36.59020515 11.73593784-53.28548875 21.15740355zm121.57317916 76.95146635c43.1379734 44.99482 86.90399107 89.38721454 129.64688651 134.76046339 10.6204458 18.54202027-13.1163386 30.80084993-23.33650554 42.65912465-13.2461026 22.16811157-37.8167726 12.20764462-49.00863752-6.20983806-23.61356527-25.20751994-47.98696386-49.68819343-71.84730898-74.6636785-31.7866161 29.71383812-61.80226922 61.65561348-94.740278 89.929745-19.33057646 6.26384044-29.27359689-16.99058257-42.09199074-26.86354498-22.81087633-15.0196337-5.1900311-38.28939085 11.17805046-49.70552091 40.53512706-37.49039877 78.58190397-78.01005813 120.13618046-114.17724459 6.70439354-2.86208773 15.16256372-1.19822498 20.06360335 4.270494z"/>
</svg>
